<?xml version="1.0" standalone="no"?>
<!DOCTYPE svg PUBLIC "-//W3C//DTD SVG 20010904//EN"
 "http://www.w3.org/TR/2001/REC-SVG-20010904/DTD/svg10.dtd">
<svg version="1.0" xmlns="http://www.w3.org/2000/svg"
 width="1800.000000pt" height="1131.000000pt" viewBox="0 0 1800.000000 1131.000000"
 preserveAspectRatio="xMidYMid meet">
<g transform="translate(0.000000,1131.000000) scale(0.100000,-0.100000)"
fill="#000000" stroke="none">
<path d="M9111 11029 c-140 -11 -144 -31 -6 -28 118 2 189 14 180 29 -7 11
-35 11 -174 -1z"/>
<path d="M9343 11018 c-2 -5 9 -8 25 -8 16 0 51 -3 78 -6 34 -5 46 -3 39 4
-12 12 -135 20 -142 10z"/>
<path d="M8930 10994 c-45 -15 -99 -41 -126 -61 -17 -13 -34 -23 -37 -23 -20
0 -114 -77 -190 -155 -101 -102 -197 -253 -241 -375 -15 -41 -32 -84 -39 -95
-6 -11 -15 -54 -18 -95 -4 -41 -12 -106 -18 -145 -17 -101 0 -195 39 -217 44
-25 59 -58 67 -142 7 -87 24 -117 52 -92 14 12 18 12 30 -1 10 -11 16 -12 25
-3 8 9 7 14 -3 18 -16 6 -61 51 -61 62 0 4 18 13 40 20 39 13 42 12 70 -15 33
-31 119 -64 153 -58 31 6 86 -15 68 -26 -9 -6 -10 -11 -2 -15 16 -10 31 2 24
19 -3 8 0 15 6 15 6 0 11 4 11 9 0 6 10 26 21 46 17 28 24 33 35 24 8 -6 14
-20 14 -29 0 -11 14 -25 32 -34 37 -19 41 -20 33 -6 -4 6 5 20 19 31 20 16 26
29 26 59 0 21 4 41 9 44 10 7 21 -17 21 -45 0 -27 41 -34 109 -20 105 23 114
26 125 44 9 15 7 21 -13 36 -14 11 -21 23 -16 30 4 7 4 23 1 37 -8 29 -49 33
-83 9 -29 -20 -40 -2 -18 31 9 14 15 35 13 47 -5 34 28 33 63 -2 37 -38 51
-39 82 -6 l23 26 14 -27 c13 -23 19 -25 51 -20 31 5 38 3 42 -14 3 -11 13 -20
22 -20 13 0 16 6 13 25 -3 16 1 30 13 41 17 15 20 13 57 -25 26 -27 48 -41 65
-41 23 0 26 -5 32 -49 6 -44 4 -51 -19 -74 -14 -14 -26 -35 -26 -47 0 -11 -7
-31 -15 -44 -10 -15 -14 -37 -11 -62 2 -22 5 -42 5 -46 1 -5 14 -8 30 -8 17 0
32 -4 36 -9 3 -5 30 -22 60 -37 46 -24 58 -26 80 -16 14 6 30 23 35 36 11 29
26 40 35 26 10 -17 83 -60 100 -60 8 0 15 -4 15 -9 0 -4 11 -20 25 -35 14 -15
25 -31 25 -36 0 -4 15 -8 34 -8 23 0 42 8 57 24 12 13 27 24 32 24 23 0 -13
-213 -52 -312 -20 -51 29 -50 94 2 71 57 159 198 193 310 18 58 24 143 13 172
-12 31 -76 68 -118 68 -50 0 -55 10 -48 91 3 41 8 176 11 302 4 184 2 239 -11
287 -35 134 -112 264 -227 382 -30 30 -43 37 -62 32 -26 -6 -44 12 -28 28 15
15 4 36 -41 77 -58 53 -87 69 -137 76 -35 5 -41 4 -27 -5 14 -9 15 -15 6 -32
-8 -15 -14 -17 -22 -9 -6 6 -23 11 -38 11 -15 0 -29 7 -33 16 -3 8 -11 12 -16
9 -7 -4 -1 -17 15 -32 37 -38 33 -61 -12 -69 -21 -4 -57 -20 -80 -36 -37 -25
-43 -26 -51 -12 -8 14 -20 15 -78 10 -116 -12 -139 -10 -189 20 l-47 27 -42
-22 c-23 -13 -52 -21 -66 -19 -25 4 -27 7 -17 43 5 15 -3 26 -33 45 -57 34
-51 60 18 75 36 8 45 35 10 34 -13 0 -30 -3 -38 -5z m-270 -629 c7 -18 17 -25
37 -25 16 0 37 -7 47 -15 11 -8 32 -15 47 -15 20 0 32 -9 48 -36 20 -33 25
-36 56 -31 42 7 69 -15 61 -48 -3 -13 0 -27 8 -34 8 -7 12 -20 9 -30 -7 -27
14 -61 37 -61 26 0 26 27 0 35 -17 5 -30 35 -15 35 16 0 55 -26 55 -37 0 -24
44 -13 81 20 23 21 42 51 53 84 19 57 13 53 127 68 41 5 49 3 80 -25 29 -26
41 -30 79 -28 39 2 46 -1 57 -22 7 -14 10 -33 7 -42 -7 -24 44 -50 70 -36 10
5 32 7 49 4 18 -4 41 -8 52 -10 11 -1 29 -7 40 -13 19 -11 19 -12 2 -30 -9
-11 -17 -26 -17 -34 -1 -8 -11 -27 -24 -42 -19 -24 -31 -29 -70 -29 -54 0 -59
3 -61 35 -1 15 -8 22 -24 23 -12 1 -24 4 -28 7 -3 4 -19 -3 -34 -14 -22 -16
-33 -18 -48 -9 -11 5 -32 10 -46 10 -17 0 -38 11 -56 31 -21 22 -36 30 -56 27
-23 -2 -28 -8 -28 -30 0 -37 -19 -39 -25 -4 -7 40 -33 55 -57 33 -11 -10 -27
-14 -40 -11 -17 5 -23 1 -28 -19 -5 -18 -12 -23 -26 -20 -14 4 -19 0 -19 -16
0 -12 5 -30 12 -40 15 -25 3 -58 -16 -42 -13 11 -63 5 -107 -14 -10 -3 -20 -1
-24 5 -5 8 -14 5 -31 -11 -26 -24 -60 -20 -50 7 3 9 6 24 6 35 0 12 10 23 25
29 27 10 31 29 15 60 -8 14 -6 21 5 28 14 7 14 12 0 45 l-16 38 31 10 c37 13
37 18 -1 48 -23 18 -33 21 -42 12 -9 -9 -8 -17 2 -32 8 -14 9 -25 3 -31 -6 -6
-20 5 -38 31 -44 63 -146 82 -204 39 -26 -19 -33 -20 -69 -9 -42 12 -62 44
-42 64 6 6 11 24 11 39 0 22 7 31 28 39 15 6 34 15 42 19 28 16 50 10 60 -15z
m780 -105 c0 -5 -7 -10 -15 -10 -8 0 -15 5 -15 10 0 6 7 10 15 10 8 0 15 -4
15 -10z m420 -4 c0 -8 -4 -17 -9 -21 -12 -7 -24 12 -16 25 9 15 25 12 25 -4z
m-1390 -296 c0 -5 -9 -14 -20 -20 -17 -9 -20 -8 -20 10 0 13 7 20 20 20 11 0
20 -4 20 -10z m-93 -57 c-3 -3 -11 -2 -17 2 -8 5 -7 11 2 22 12 15 13 14 16
-1 2 -10 1 -20 -1 -23z m102 -52 c10 -7 11 -13 2 -30 -7 -12 -9 -36 -6 -55 9
-46 -7 -52 -44 -16 -27 28 -29 33 -19 63 16 45 37 57 67 38z"/>
<path d="M9555 10980 c-3 -5 3 -10 15 -10 12 0 18 5 15 10 -3 6 -10 10 -15 10
-5 0 -12 -4 -15 -10z"/>
<path d="M9285 9730 c-10 -22 -21 -40 -24 -40 -3 0 -12 -4 -19 -9 -11 -6 -11
-17 -1 -55 14 -56 5 -67 -48 -59 -25 4 -33 2 -33 -9 0 -46 95 -57 133 -16 13
14 40 28 61 32 44 8 53 25 35 69 -11 28 -76 127 -83 127 -2 0 -11 -18 -21 -40z"/>
<path d="M8133 9732 c-44 -45 -68 -141 -60 -246 9 -106 29 -175 77 -257 43
-73 170 -199 200 -199 22 0 27 28 10 60 -13 24 -38 148 -55 270 -8 52 -18 122
-24 155 -6 33 -11 99 -11 148 0 85 -1 87 -24 87 -13 0 -37 3 -53 6 -24 5 -35
0 -60 -24z"/>
<path d="M8400 9563 c0 -2 7 -18 16 -34 11 -22 21 -29 37 -27 16 2 25 -5 35
-27 29 -66 43 -75 52 -33 8 33 45 31 45 -2 0 -20 6 -26 29 -28 23 -3 27 0 22
12 -3 9 -8 22 -11 29 -4 8 9 21 34 33 43 20 54 35 45 59 -11 27 -50 18 -63
-14 -18 -41 -53 -55 -83 -32 -50 38 -158 82 -158 64z"/>
<path d="M8684 9469 c-3 -6 1 -18 10 -28 15 -17 15 -20 -5 -45 -27 -34 -20
-41 19 -19 30 17 32 17 60 -4 20 -15 33 -18 45 -11 15 8 15 12 4 36 -8 15 -12
35 -9 45 4 19 -4 23 -70 31 -28 3 -50 1 -54 -5z"/>
<path d="M8535 9357 c-11 -27 -12 -43 -5 -62 6 -15 10 -38 10 -52 0 -20 4 -24
18 -18 9 4 25 10 35 13 15 4 17 11 12 31 -3 14 -9 40 -12 58 -3 17 -14 39 -24
49 -18 16 -19 15 -34 -19z"/>
<path d="M8882 9318 c3 -7 15 -14 29 -16 23 -2 23 -2 5 13 -24 18 -39 20 -34
3z"/>
<path d="M8470 9205 c0 -8 8 -19 19 -24 28 -15 101 -25 101 -14 0 16 -38 45
-52 41 -7 -3 -25 -1 -40 3 -21 6 -28 4 -28 -6z"/>
<path d="M9736 8494 c-3 -11 -30 -39 -59 -62 -28 -22 -71 -56 -94 -74 -23 -18
-42 -41 -42 -51 -1 -27 -56 -77 -84 -77 -13 0 -47 -18 -75 -40 -40 -32 -64
-43 -112 -51 -84 -13 -191 -4 -237 21 -21 11 -44 20 -51 20 -7 0 -35 11 -62
25 -27 14 -56 25 -64 25 -8 0 -39 20 -69 44 -29 24 -63 49 -75 55 -12 6 -29
33 -39 61 -20 56 -38 67 -30 18 5 -36 -9 -151 -22 -183 -5 -11 -17 -42 -26
-70 -30 -86 -53 -131 -110 -216 -30 -45 -55 -85 -55 -89 0 -4 7 -13 16 -21 18
-15 31 -2 40 41 3 15 15 30 27 35 12 6 24 19 26 30 2 11 12 28 22 38 10 10 19
24 19 32 0 9 10 15 24 15 13 0 34 8 47 19 21 17 22 22 12 57 -23 76 -24 106
-6 120 21 15 43 1 43 -26 0 -20 19 -30 56 -30 24 0 24 1 9 30 -9 17 -20 30
-25 30 -6 0 -10 7 -10 15 0 8 3 15 7 15 17 0 111 -51 127 -69 19 -21 19 -21
-18 -36 -54 -23 -48 -45 13 -45 55 0 75 -14 98 -67 11 -28 18 -33 48 -33 18 0
37 -5 40 -10 4 -6 22 -17 41 -25 27 -11 40 -12 60 -3 19 9 30 9 45 0 13 -8 42
-10 90 -6 l71 7 -6 46 c-6 49 -1 64 26 74 24 9 48 -29 48 -75 0 -36 8 -47 24
-31 11 11 99 43 118 43 9 0 32 25 53 55 36 55 60 67 94 46 9 -6 25 -2 46 10
l33 20 13 -33 13 -33 4 29 c2 16 -1 33 -7 39 -6 6 -11 24 -11 41 0 31 -24 174
-45 266 -9 42 -14 50 -19 34z m32 -242 c2 -15 -5 -34 -19 -49 -22 -22 -24 -23
-36 -7 -7 10 -13 33 -13 52 0 32 2 33 33 30 25 -2 33 -8 35 -26z m-103 8 c7
-12 -12 -40 -26 -40 -10 0 -12 34 -2 43 9 10 21 9 28 -3z"/>
<path d="M9890 7966 c0 -8 5 -18 10 -21 6 -3 10 1 10 9 0 8 -4 18 -10 21 -5 3
-10 -1 -10 -9z"/>
<path d="M9920 7924 c0 -9 9 -27 20 -41 11 -14 20 -31 20 -38 0 -6 11 -22 25
-35 14 -13 25 -29 25 -37 0 -17 10 -16 31 3 25 23 65 11 73 -21 4 -15 14 -25
24 -25 9 0 30 -10 45 -23 26 -20 27 -25 17 -51 -13 -35 4 -63 21 -33 6 9 22
17 36 17 23 0 25 -3 20 -29 -5 -25 -3 -29 22 -34 25 -5 28 -10 23 -33 -5 -27
-4 -27 42 -22 26 3 55 13 66 23 13 12 27 15 46 11 18 -5 32 -2 44 9 11 10 30
15 47 13 27 -3 28 -5 25 -48 -2 -45 -2 -45 16 -22 l18 23 23 -25 c18 -19 30
-24 51 -19 18 3 40 -1 59 -13 26 -15 34 -16 54 -5 31 16 67 0 67 -31 0 -16 4
-19 23 -14 43 14 52 12 49 -9 -12 -65 -13 -105 -4 -105 6 0 12 -12 14 -27 2
-23 9 -29 33 -31 42 -5 49 -15 25 -37 -19 -17 -25 -18 -53 -6 -18 7 -42 15
-54 18 -27 6 -30 29 -6 55 15 17 15 18 -18 12 -118 -24 -124 -27 -124 -64 0
-30 4 -36 25 -38 48 -7 67 -46 34 -73 -10 -8 -14 -23 -12 -41 3 -16 1 -31 -4
-34 -15 -10 -8 -25 10 -20 9 3 24 1 32 -4 11 -7 17 -2 27 21 16 38 60 41 69 5
10 -41 1 -61 -28 -64 -15 -2 -39 -17 -53 -34 -24 -28 -27 -29 -44 -14 -22 20
-37 20 -45 1 -3 -8 -14 -15 -24 -15 -28 0 -34 -11 -17 -30 14 -16 14 -18 0
-23 -16 -7 -21 -37 -6 -37 5 0 15 10 23 22 14 21 52 27 97 16 8 -2 17 7 21 22
13 54 97 59 111 7 6 -24 3 -29 -23 -43 -17 -9 -40 -13 -53 -10 -26 7 -48 -14
-43 -41 3 -14 11 -17 38 -15 31 3 33 2 20 -13 -7 -9 -27 -23 -44 -32 -49 -24
-76 -54 -76 -83 0 -15 -9 -35 -20 -45 -27 -24 -25 -35 6 -35 21 0 25 -4 22
-22 -3 -20 -8 -23 -39 -20 -30 2 -38 -1 -42 -19 -3 -13 -10 -18 -17 -14 -7 4
-10 16 -7 26 3 11 0 19 -8 19 -15 0 -28 27 -15 35 4 3 15 2 23 -1 8 -3 18 0
22 6 4 6 -12 18 -38 30 -35 16 -47 27 -52 50 -4 17 -15 36 -26 44 -12 8 -17
19 -13 30 7 19 -7 21 -24 4 -8 -8 -15 -3 -29 20 -21 37 -28 39 -43 13 -7 -13
-25 -22 -58 -27 -35 -5 -56 -15 -83 -41 -46 -44 -58 -30 -28 34 12 27 24 64
28 83 5 26 13 37 33 44 23 8 36 4 78 -22 38 -24 50 -28 50 -16 0 9 8 18 18 20
9 3 22 16 29 30 13 29 14 28 -26 8 -30 -15 -33 -15 -53 2 -11 11 -27 32 -35
49 -16 29 -16 29 -24 7 -9 -23 -26 -26 -91 -16 -31 5 -38 11 -38 30 0 31 17
40 39 20 17 -15 20 -15 44 4 14 11 31 20 38 20 7 0 25 15 40 33 25 30 29 31
57 21 39 -15 43 -10 25 27 -16 33 -22 34 -71 17 -29 -11 -35 -10 -43 5 -13 23
-31 22 -47 -3 -13 -21 -42 -28 -42 -10 0 6 -6 10 -14 10 -18 0 -28 -39 -20
-79 6 -27 3 -33 -25 -48 -21 -12 -30 -24 -27 -35 2 -10 -2 -22 -10 -29 -8 -6
-14 -18 -14 -26 0 -8 -11 -28 -25 -45 -31 -37 -34 -78 -4 -78 15 0 20 -5 17
-22 -2 -19 2 -24 25 -26 22 -3 32 -12 43 -38 8 -19 18 -34 23 -34 5 0 9 -31
10 -69 1 -50 -3 -72 -14 -81 -8 -7 -15 -18 -15 -26 0 -7 -9 -21 -20 -31 -19
-19 -19 -19 0 -48 12 -19 20 -47 20 -76 l0 -45 38 0 c52 1 62 11 62 61 0 47
21 78 49 73 16 -4 17 -9 5 -90 -5 -27 0 -46 20 -80 25 -43 25 -44 9 -89 -21
-59 -14 -79 30 -79 39 0 64 -23 59 -53 -2 -11 1 -23 8 -27 7 -5 8 -19 2 -46
-5 -24 -5 -48 1 -61 12 -27 65 -46 101 -37 15 4 32 1 41 -6 12 -10 13 -17 1
-45 -13 -31 -13 -33 9 -43 20 -9 25 -8 30 8 6 19 15 21 72 24 24 1 45 -42 32
-66 -23 -43 -87 -46 -107 -5 -8 17 -11 18 -11 5 -1 -21 -38 -48 -65 -48 -11 0
-29 9 -41 20 l-22 20 4 -27 c6 -43 -10 -60 -44 -47 l-28 10 -3 -54 c-2 -36
-11 -69 -27 -97 -14 -23 -25 -55 -25 -71 0 -17 -5 -35 -11 -41 -8 -8 -5 -13
10 -18 30 -9 27 -35 -4 -35 -20 0 -25 5 -25 25 0 29 -29 35 -50 10 -7 -8 -23
-15 -37 -15 -13 0 -26 7 -29 15 -11 27 -21 16 -27 -27 -2 -24 -8 -51 -12 -60
-11 -27 16 -22 44 7 29 31 32 31 71 -2 27 -22 35 -25 51 -15 14 9 25 9 43 0
20 -9 30 -8 50 6 40 25 59 21 53 -11 -12 -64 -26 -106 -37 -113 -7 -4 -26 -2
-42 4 -28 10 -32 9 -63 -26 -23 -28 -40 -38 -61 -38 -18 0 -34 -7 -42 -20 -10
-16 -16 -18 -32 -10 -46 25 -76 -7 -40 -45 11 -12 20 -31 20 -42 0 -12 14 -32
32 -47 29 -22 31 -27 20 -50 -6 -14 -20 -26 -30 -26 -29 0 -34 -12 -12 -27 10
-7 17 -20 14 -28 -3 -8 3 -27 14 -42 31 -45 36 -70 14 -82 -22 -11 -42 3 -42
29 0 32 -26 70 -53 80 -16 5 -31 19 -34 30 -7 25 -10 25 -50 0 -43 -26 -46
-67 -5 -72 23 -2 27 -7 25 -30 -1 -21 3 -28 16 -28 10 0 30 -9 44 -20 14 -11
35 -20 47 -20 60 0 81 -57 37 -98 -30 -29 -36 -28 -68 11 -22 25 -30 29 -40
20 -10 -10 -9 -16 4 -31 32 -36 22 -52 -32 -52 -63 0 -80 -7 -92 -36 -5 -14
-17 -24 -28 -24 -25 0 -36 -17 -21 -35 9 -10 7 -15 -9 -20 -23 -7 -27 -20 -11
-30 6 -3 10 -18 10 -32 0 -22 3 -24 25 -19 31 8 44 -17 26 -46 -14 -22 -7 -54
14 -62 23 -8 19 -46 -5 -46 -28 0 -26 -32 4 -67 21 -25 26 -26 50 -15 15 7 36
12 48 12 11 0 29 11 39 25 17 21 23 23 44 13 42 -19 44 -90 3 -104 -15 -5 -26
0 -39 17 l-17 24 -7 -27 c-4 -16 -1 -38 7 -55 12 -24 12 -32 -2 -55 -8 -15
-30 -35 -47 -45 -18 -10 -33 -23 -33 -30 0 -7 -7 -16 -16 -21 -15 -9 -16 -11
-1 -32 16 -23 14 -77 -6 -114 -10 -19 -10 -19 -27 2 -16 19 -20 20 -30 7 -21
-25 -37 -17 -64 29 -18 31 -26 61 -28 102 -3 52 -1 59 21 70 26 13 49 4 98
-40 25 -21 39 -17 30 9 -4 8 -16 15 -27 15 -25 0 -25 17 -2 52 13 20 21 25 29
17 8 -8 13 -8 17 0 9 14 -2 33 -14 26 -5 -3 -21 2 -35 11 -23 15 -27 15 -50 0
-31 -21 -41 -20 -64 3 -15 15 -18 28 -14 58 4 28 1 42 -11 52 -9 7 -16 28 -16
46 0 30 -4 34 -47 49 -40 14 -49 14 -62 2 -9 -8 -25 -16 -36 -18 -16 -2 -21 3
-23 30 -5 55 20 74 85 66 44 -5 53 -4 53 9 0 19 -38 33 -52 19 -7 -7 -17 -7
-32 2 -31 19 -120 20 -135 2 -11 -13 -10 -18 3 -32 29 -29 38 -52 26 -74 -16
-30 -45 -24 -84 16 -30 31 -36 33 -44 19 -5 -9 -26 -27 -48 -39 -29 -16 -39
-28 -39 -46 0 -16 -8 -28 -22 -35 -12 -5 -24 -20 -27 -35 -3 -14 -10 -32 -15
-40 -9 -13 -14 -13 -38 0 -31 17 -43 61 -23 86 10 11 10 21 0 44 -15 37 -30
39 -30 5 0 -14 -11 -37 -25 -51 -14 -14 -25 -34 -25 -45 0 -24 -46 -72 -63
-66 -7 2 -13 17 -15 33 -2 24 -9 32 -35 40 -26 7 -33 15 -35 41 -6 59 81 111
112 67 9 -12 17 -13 39 -5 36 14 35 31 -2 31 -35 0 -66 34 -75 84 -7 34 -7 34
-36 19 -16 -8 -35 -11 -42 -7 -7 4 -28 7 -46 6 -21 -2 -42 4 -53 14 -13 12
-28 15 -54 10 -32 -6 -36 -4 -48 21 -6 15 -27 41 -45 57 -26 23 -32 35 -27 53
4 17 1 23 -10 23 -10 0 -26 -22 -40 -55 -20 -45 -30 -56 -57 -63 -58 -16 -71
-1 -64 76 5 54 4 63 -6 44 -14 -28 -53 -38 -90 -24 -25 9 -28 8 -28 -9 0 -10
-12 -26 -26 -36 -25 -16 -27 -16 -40 2 -18 24 -18 30 2 60 14 22 14 26 -1 49
-22 33 -39 34 -31 2 8 -31 -16 -56 -54 -56 -33 0 -64 26 -56 47 3 8 6 19 6 24
0 5 18 12 40 15 36 6 39 8 29 28 -6 11 -22 31 -37 43 -23 20 -24 24 -13 52 15
35 10 47 -25 55 -20 5 -30 2 -41 -14 -20 -28 -67 -24 -71 7 -2 12 -10 27 -18
33 -8 7 -14 21 -14 31 0 11 -17 26 -46 40 -35 18 -44 28 -40 42 2 10 -4 33
-14 50 -20 32 -13 57 16 57 12 0 84 64 84 75 0 3 -11 5 -24 5 -13 0 -26 6 -29
13 -3 9 -10 7 -25 -7 -16 -14 -30 -17 -57 -12 -50 10 -56 1 -33 -42 26 -47 19
-86 -20 -106 -15 -8 -38 -35 -52 -61 -27 -49 -55 -64 -88 -46 -12 6 -32 11
-46 11 -30 0 -33 4 -37 58 -4 43 -3 44 35 57 21 8 46 21 55 30 15 15 14 18 -8
36 -16 13 -22 25 -18 41 4 15 -1 30 -14 44 -40 43 -2 92 49 63 23 -13 27 -21
24 -52 -3 -41 -3 -41 32 -27 18 6 28 21 36 49 6 23 20 45 30 51 28 15 25 30
-5 30 -28 0 -40 18 -50 80 -4 25 -18 58 -32 74 -15 18 -21 35 -18 47 12 38
-11 16 -36 -34 -18 -35 -33 -53 -48 -55 -17 -3 -21 2 -21 21 0 37 -25 53 -60
40 -25 -9 -32 -8 -49 11 -26 27 -26 38 -3 59 28 26 67 22 80 -8 14 -30 37 -32
52 -6 16 32 12 41 -26 57 -27 11 -34 18 -25 27 17 17 13 24 -19 30 -25 6 -30
11 -30 37 0 18 6 33 15 36 10 4 13 13 10 25 -5 14 0 22 19 28 14 6 26 19 28
33 4 33 52 38 69 7 10 -19 9 -25 -7 -36 -10 -7 -24 -13 -31 -13 -23 0 -14 -17
15 -28 49 -18 57 -19 78 -12 12 5 25 25 34 51 7 24 18 49 22 56 6 7 4 20 -4
32 -16 26 -2 53 33 61 39 9 30 35 -14 38 -33 3 -41 8 -52 36 -8 18 -21 38 -29
45 -23 19 -9 32 27 26 24 -5 50 2 100 24 57 25 67 34 67 55 0 30 -13 39 -59
40 -29 1 -37 5 -39 23 -2 11 4 27 13 35 60 48 87 80 76 91 -20 20 -13 64 15
81 21 14 31 15 60 6 21 -7 39 -21 44 -34 11 -30 39 -58 51 -51 13 9 11 42 -3
66 -12 18 -9 23 21 48 29 24 32 30 22 49 -11 20 -12 20 -42 4 -29 -16 -31 -16
-44 2 -23 30 -18 46 15 58 20 6 38 24 51 49 10 21 23 39 27 40 4 0 23 2 42 4
25 2 40 -3 56 -18 12 -12 29 -28 38 -35 28 -23 20 -50 -18 -58 -36 -6 -54 -30
-37 -47 7 -7 15 -6 26 3 13 11 19 9 39 -9 l24 -22 6 27 c7 25 9 26 53 20 40
-5 44 -4 33 9 -7 8 -19 15 -26 15 -39 0 -54 90 -17 104 12 5 11 10 -9 31 -12
14 -30 25 -38 25 -25 0 -40 21 -40 56 0 49 17 84 39 84 11 0 22 9 26 20 3 11
18 23 31 26 22 6 25 11 22 43 -2 29 1 38 19 46 15 6 21 18 21 36 -1 34 9 49
32 49 27 0 39 -49 16 -65 -14 -11 -15 -14 -1 -25 8 -7 15 -18 14 -24 -3 -24 2
-34 19 -38 13 -4 21 -18 25 -44 4 -21 5 -39 4 -41 -9 -9 -80 13 -85 26 -12 35
-52 42 -52 10 0 -14 -10 -24 -30 -32 -17 -7 -30 -19 -30 -29 0 -35 36 -39 122
-11 48 15 48 15 82 -13 19 -16 37 -37 41 -46 3 -10 12 -18 20 -18 7 0 23 -11
36 -25 13 -13 31 -25 40 -25 41 0 53 -71 14 -79 -11 -2 -31 -12 -44 -22 -18
-15 -27 -16 -37 -8 -20 16 -17 56 4 68 15 9 14 10 -9 11 -14 0 -34 7 -45 15
-34 26 -46 19 -40 -22 7 -42 1 -55 -32 -72 -12 -7 -20 -16 -17 -22 10 -15 41
-10 60 11 23 26 45 25 52 -1 3 -11 17 -25 32 -30 22 -9 28 -7 40 10 16 25 66
28 75 5 3 -9 6 -27 6 -41 0 -19 4 -24 16 -19 9 3 23 6 32 6 13 0 12 3 -5 15
-19 13 -21 19 -12 39 8 17 8 29 0 44 -8 15 -8 28 1 47 9 19 9 28 0 37 -9 9
-12 9 -12 0 0 -7 -7 -12 -15 -12 -8 0 -15 4 -15 9 0 5 -13 14 -29 21 -37 15
-46 36 -27 65 8 12 16 35 18 51 5 42 32 42 60 0 13 -19 34 -41 48 -48 14 -7
28 -14 32 -16 4 -2 12 6 17 17 10 18 8 21 -21 29 -27 7 -36 16 -49 52 -15 40
-15 47 0 82 12 27 22 38 38 38 12 0 34 5 49 10 23 9 33 7 56 -10 18 -14 36
-18 52 -14 13 3 27 1 30 -5 4 -6 14 -3 26 9 11 11 27 20 35 20 8 0 15 5 15 10
0 6 -11 10 -25 10 -18 0 -26 7 -31 24 -3 14 -3 30 1 35 8 14 62 14 70 1 4 -6
13 -7 23 -1 9 4 23 6 30 4 19 -7 14 -62 -8 -90 -38 -49 -21 -56 40 -18 58 36
100 29 100 -17 0 -41 52 -8 107 68 l22 29 11 -29 c6 -16 18 -35 28 -42 23 -18
52 -17 52 0 0 8 11 27 24 43 20 23 26 25 40 14 13 -11 17 -11 22 2 9 24 -5 41
-21 27 -10 -8 -15 -8 -20 0 -8 13 8 49 37 89 26 34 13 39 -17 7 -28 -30 -49
-30 -51 0 -5 59 -5 60 -20 27 -20 -46 -55 -53 -95 -19 -17 14 -37 26 -45 26
-8 0 -24 16 -35 35 -21 35 -46 55 -70 55 -8 0 -6 -6 4 -18 10 -10 17 -26 17
-36 0 -9 11 -21 24 -26 32 -12 43 -46 22 -69 -14 -16 -14 -19 1 -34 25 -24 4
-62 -39 -71 -55 -11 -74 45 -26 79 13 9 17 18 12 27 -5 7 -7 23 -5 36 2 21 0
22 -18 13 -28 -16 -52 -14 -66 6 -11 15 -15 15 -53 -3 -24 -11 -42 -26 -42
-36 -1 -56 -29 -62 -85 -15 -21 17 -53 37 -70 42 -20 7 -31 18 -33 33 -2 13
-10 26 -17 28 -8 3 -17 19 -20 35 -8 38 -22 37 -30 -2 -6 -27 -10 -30 -38 -27
-27 2 -33 8 -37 33 l-6 30 -15 -30 c-11 -23 -21 -30 -44 -30 -34 0 -77 -36
-65 -54 12 -21 0 -55 -27 -75 -24 -17 -29 -18 -52 -5 -20 11 -26 23 -26 48 0
31 3 35 40 45 33 9 41 17 43 39 2 15 8 27 13 27 15 0 31 52 20 63 -7 7 -16 0
-28 -21 -10 -18 -23 -32 -29 -32 -6 0 -19 -9 -29 -20 -23 -25 -30 -25 -56 1
-15 15 -19 28 -14 50 4 18 3 29 -4 29 -6 0 -11 -19 -11 -44 0 -24 -3 -51 -6
-59 -3 -9 3 -17 18 -21 15 -5 19 -9 10 -13 -8 -3 -24 0 -35 5 -12 6 -35 13
-52 14 -23 2 -31 9 -33 27 -4 27 12 41 47 41 21 0 23 3 18 35 -3 19 -3 34 1
34 33 -5 42 23 22 62 -14 25 -36 24 -50 -2 -11 -19 -13 -19 -49 19 -31 32 -44
39 -65 35 -16 -3 -26 -1 -26 6 0 6 -12 16 -26 22 -33 12 -74 -11 -74 -41 0
-16 5 -19 28 -14 16 3 35 -1 46 -9 19 -14 19 -14 0 -40 -10 -14 -28 -30 -39
-36 -11 -6 -32 -21 -47 -32 -23 -19 -30 -20 -43 -9 -8 7 -15 28 -15 46 0 30 4
35 30 41 17 3 30 12 30 19 0 18 -7 17 -55 -6 -45 -22 -95 -26 -112 -9 -8 8
-19 2 -40 -21 -39 -45 -36 -55 18 -55 58 -1 79 -17 79 -61 0 -32 -2 -34 -36
-34 -24 0 -34 -4 -31 -12 2 -7 13 -11 23 -10 10 2 29 4 40 4 13 0 26 10 32 23
9 18 21 23 74 29 34 4 73 10 84 12 30 8 37 -19 13 -50 -27 -34 -21 -68 11 -76
21 -5 26 -14 32 -55 9 -62 4 -78 -27 -95 -22 -12 -28 -12 -40 1 -18 19 -8 67
17 75 18 5 19 7 3 25 -17 18 -18 18 -34 -1 -13 -16 -22 -18 -46 -11 -25 7 -33
4 -50 -16 -12 -14 -33 -26 -48 -26 -18 -1 -27 -8 -27 -18 0 -9 -8 -27 -19 -40
-18 -22 -19 -22 -45 -6 -14 10 -26 24 -26 31 0 8 -29 28 -64 45 l-64 32 -27
-25 c-34 -32 -65 -34 -65 -6 0 16 -7 20 -32 20 -18 0 -42 -8 -53 -16 -20 -15
-20 -15 -1 -30 11 -8 26 -14 33 -14 8 0 19 -13 24 -30 6 -16 19 -32 29 -35 35
-11 44 -32 26 -60 -21 -31 -28 -31 -63 1 -23 21 -33 24 -65 19 -34 -6 -41 -3
-65 24 -28 32 -60 40 -80 20 -17 -17 -33 -2 -33 30 0 16 10 37 24 50 27 25 45
21 80 -18 11 -12 25 -21 33 -21 23 0 26 27 4 49 -12 12 -21 30 -21 41 0 11
-12 25 -27 33 -26 14 -26 15 -5 21 33 11 29 44 -5 48 -25 3 -28 7 -28 43 0 36
3 40 28 43 30 4 39 -10 41 -60 1 -26 4 -29 26 -23 50 12 55 11 55 -14 0 -13 6
-26 13 -28 8 -3 12 5 12 24 0 15 4 33 8 38 17 24 66 55 88 55 13 0 37 8 55 19
31 19 67 61 52 61 -4 0 -21 11 -37 25 -20 17 -33 22 -40 15 -15 -15 -36 -12
-30 4 11 28 -31 28 -83 -1 -29 -15 -53 -31 -53 -36 0 -4 11 -13 25 -19 35 -16
35 -60 0 -76 -23 -11 -29 -9 -51 13 -20 20 -24 32 -19 55 6 26 4 30 -14 30
-16 0 -21 -7 -22 -27 -1 -21 -2 -23 -6 -8 -9 37 -21 39 -75 13 -68 -33 -95
-39 -111 -24 -15 14 -64 36 -80 36 -7 0 -4 -5 6 -11 34 -20 14 -69 -29 -69
-23 0 -27 7 -39 68 -7 32 -6 34 15 27 20 -6 22 -5 17 17 -8 30 10 49 68 73 22
9 54 29 70 44 17 16 40 32 53 36 12 3 22 10 22 15 0 4 12 11 27 15 14 3 38 15
52 27 l26 20 -45 -7 c-25 -4 -64 -16 -87 -26 -24 -11 -71 -26 -105 -35 -35 -9
-76 -21 -93 -27 -55 -22 -214 -105 -267 -141 -59 -38 -148 -117 -148 -130 0
-4 -13 -25 -29 -45 -44 -55 -91 -139 -91 -162 0 -11 -5 -30 -11 -41 -52 -96
-67 -341 -28 -440 11 -29 25 -91 30 -138 20 -189 24 -211 49 -230 16 -12 19
-19 11 -25 -22 -13 -121 86 -121 121 0 13 -4 24 -10 24 -5 0 -10 -11 -10 -24
0 -14 -4 -27 -9 -30 -16 -10 -81 -114 -81 -129 0 -8 -7 -20 -15 -27 -8 -7 -15
-21 -15 -30 0 -10 -6 -31 -14 -47 -53 -105 -166 -344 -166 -350 -1 -5 -9 -26
-20 -48 -11 -22 -19 -49 -20 -61 0 -11 -11 -43 -25 -69 -13 -27 -27 -63 -31
-79 -3 -17 -10 -35 -14 -41 -4 -5 -11 -26 -15 -45 -4 -19 -11 -40 -16 -46 -12
-15 -29 -156 -39 -319 -4 -77 -13 -231 -20 -343 -9 -151 -9 -214 -1 -245 9
-35 16 -140 20 -318 1 -47 142 -236 240 -323 42 -37 209 -161 327 -241 48 -33
104 -74 123 -91 20 -16 65 -52 101 -80 36 -27 83 -66 105 -86 22 -20 60 -51
85 -69 25 -18 63 -47 85 -66 22 -19 45 -37 50 -41 70 -48 105 -86 105 -112 0
-26 -5 -30 -57 -45 -32 -8 -96 -27 -143 -42 -118 -36 -236 -63 -272 -63 -16 0
-53 -6 -81 -14 -35 -10 -134 -16 -304 -20 -294 -7 -510 -20 -643 -41 -125 -19
-287 -37 -380 -42 -41 -2 -97 -10 -125 -18 -27 -8 -90 -24 -139 -36 -49 -11
-97 -25 -105 -29 -9 -5 -43 -19 -76 -32 -260 -100 -506 -282 -621 -458 -43
-67 -102 -176 -126 -235 -26 -63 -48 -187 -48 -267 0 -78 4 -99 32 -166 67
-162 160 -292 290 -407 166 -146 496 -338 728 -426 47 -17 94 -36 105 -40 64
-27 143 -48 226 -62 211 -36 251 -40 419 -48 96 -5 227 -12 290 -16 152 -10
547 11 580 32 5 3 47 10 92 15 123 14 221 37 363 87 39 13 99 33 135 45 67 21
85 28 280 101 63 24 153 56 200 70 47 15 173 56 280 91 107 34 230 71 272 81
76 18 78 18 205 -3 70 -11 155 -24 188 -27 148 -14 389 -74 605 -150 36 -13
112 -37 170 -55 58 -18 117 -36 132 -42 14 -5 41 -13 60 -18 18 -5 56 -17 83
-27 28 -11 86 -27 130 -37 44 -10 99 -24 121 -32 23 -8 64 -19 90 -24 27 -5
85 -18 129 -29 44 -11 114 -25 155 -30 41 -5 125 -19 185 -30 100 -20 217 -36
335 -46 315 -27 432 -28 535 0 28 7 89 15 137 18 48 3 104 10 125 16 21 5 74
17 118 26 44 9 98 23 120 31 23 8 52 14 65 14 14 0 36 6 50 13 14 7 48 21 75
31 172 64 409 193 505 275 85 73 180 179 235 261 64 98 155 276 155 305 0 9 5
25 11 36 5 11 19 55 31 97 17 64 19 99 16 212 -3 74 -9 146 -15 160 -6 14 -19
52 -29 85 -16 56 -59 144 -75 155 -4 3 -9 16 -10 29 -4 27 -29 42 -29 17 0
-10 -9 -16 -22 -16 l-22 0 22 16 c12 8 22 22 22 30 0 21 -45 81 -99 131 -49
45 -60 50 -78 32 -16 -16 -43 -3 -43 21 0 11 5 20 10 20 30 0 -19 59 -50 60
-8 0 -40 18 -70 40 -30 22 -75 49 -100 61 -25 11 -52 25 -60 30 -8 5 -25 13
-37 18 -11 6 -24 15 -28 20 -3 6 -16 11 -28 11 -12 1 -40 8 -62 16 -84 31
-315 64 -454 64 -151 0 -305 16 -486 51 -27 6 -88 16 -135 23 -47 8 -110 23
-140 34 -30 11 -68 23 -84 27 -17 3 -62 21 -100 39 -39 19 -102 48 -141 66
-74 35 -115 65 -115 86 0 21 -17 25 -46 9 -37 -19 -50 -19 -34 0 7 8 18 15 25
15 12 0 29 40 21 48 -2 1 -33 8 -70 14 -73 12 -91 28 -22 21 37 -5 48 -1 76
24 31 28 35 29 61 16 33 -16 69 -5 102 31 17 19 28 24 50 19 29 -6 36 -30 15
-51 -9 -9 -8 -12 4 -12 9 0 18 3 20 8 2 4 35 23 73 43 50 26 70 42 71 57 3 46
12 55 56 49 22 -3 48 -2 57 3 9 4 44 20 79 36 35 15 77 41 94 56 18 15 37 28
43 28 7 0 49 28 95 63 45 34 106 80 135 102 211 159 353 300 399 394 30 63 31
71 31 191 0 152 -20 388 -40 473 -8 34 -15 80 -15 102 -1 33 -3 36 -10 19 -11
-28 -22 -35 -39 -25 -19 12 -9 44 16 56 16 7 21 15 17 28 -3 10 -10 55 -14
100 -5 45 -16 111 -25 147 -9 36 -20 85 -25 110 -15 84 -65 225 -197 560 -41
103 -137 312 -162 350 -6 8 -25 53 -43 100 -17 47 -38 92 -44 100 -7 8 -14 33
-17 55 -10 66 -36 196 -43 206 -3 6 -10 56 -15 112 -9 114 -67 358 -100 421
-12 23 -37 55 -56 72 -20 18 -33 36 -29 42 3 6 2 13 -3 16 -5 3 -12 -1 -15
-10 -11 -29 -28 -3 -22 35 5 23 4 31 -3 22 -13 -20 -32 -4 -26 22 6 26 -49
101 -96 129 -29 18 -30 18 -38 -5 -5 -13 -25 -35 -45 -51 -20 -15 -36 -34 -36
-42 0 -7 -7 -14 -15 -14 -8 0 -15 -7 -15 -15 0 -9 -16 -25 -35 -36 -19 -12
-35 -25 -35 -29 0 -14 -38 -22 -56 -12 -15 9 -15 10 4 16 12 4 27 16 32 27 9
15 7 20 -7 25 -10 3 -28 10 -41 15 l-23 9 23 30 c27 37 48 38 84 5 33 -31 40
-31 47 -3 8 30 1 38 -36 38 -18 0 -39 4 -47 10 -9 5 -19 5 -27 -1 -6 -6 -24
-9 -40 -7 -40 4 -45 50 -8 74 14 9 25 22 24 28 -3 27 3 36 25 36 13 0 29 -7
36 -15 11 -13 8 -16 -19 -21 -48 -10 -26 -23 38 -22 32 0 65 -3 75 -9 19 -11
86 -5 86 8 0 5 -4 9 -9 9 -5 0 -24 14 -41 30 -18 17 -52 40 -76 50 -24 11 -46
24 -49 30 -3 5 -14 10 -25 10 -10 0 -20 6 -23 14 -3 7 -18 16 -34 19 -15 2
-53 15 -83 27 -30 12 -71 25 -90 29 -19 4 -46 13 -59 20 -13 8 -52 14 -85 15
-34 0 -67 7 -74 14 -7 6 -29 12 -48 12 -20 0 -45 5 -57 11 -11 7 -42 18 -67
25 -25 7 -76 22 -115 33 -38 11 -80 21 -91 21 -26 0 -115 26 -169 50 -22 10
-47 20 -55 23 -8 2 -48 30 -88 61 -40 31 -74 56 -77 56 -3 0 -5 -7 -5 -16z
m1158 -402 c7 -5 14 -22 15 -38 2 -26 -1 -29 -31 -32 -38 -4 -62 12 -62 39 0
30 48 49 78 31z m-3790 -326 c-2 -14 -11 -22 -29 -24 -35 -4 -45 22 -17 42 26
19 50 10 46 -18z m96 -52 c21 -21 20 -31 -3 -39 -11 -3 -34 -19 -52 -36 -35
-33 -44 -30 -53 16 -5 26 -1 33 27 52 39 26 61 28 81 7z m3619 -12 c63 1 90
-14 85 -46 -7 -48 -100 -45 -125 4 -8 16 -19 24 -32 22 -25 -4 -36 15 -20 34
12 14 14 14 24 1 8 -11 28 -15 68 -15z m447 -8 c0 -8 -7 -14 -15 -14 -17 0
-18 2 -9 24 7 18 24 12 24 -10z m-2560 -85 c0 -19 4 -20 35 -15 27 5 37 3 41
-9 4 -10 13 -13 25 -10 10 3 30 -1 43 -11 16 -10 35 -14 51 -10 17 4 25 2 25
-7 0 -8 11 -20 25 -27 37 -20 31 -43 -15 -58 -22 -6 -46 -12 -55 -12 -8 0 -22
-11 -31 -25 -9 -14 -22 -25 -28 -25 -21 0 -48 42 -53 82 -5 32 -9 38 -25 32
-27 -8 -49 13 -42 41 3 13 1 26 -5 29 -14 9 -14 46 -1 46 6 0 10 -10 10 -21z
m-1682 2 c21 -13 10 -46 -16 -49 -24 -4 -38 18 -28 43 6 17 24 19 44 6z m4210
-32 c-1 -13 -10 -24 -18 -24 -19 0 -26 45 -8 56 18 11 30 -4 26 -32z m-3718 7
c0 -8 -4 -17 -9 -21 -12 -7 -24 12 -16 25 9 15 25 12 25 -4z m-242 -33 c-2
-22 -8 -28 -28 -28 -20 0 -26 6 -28 28 -3 24 0 27 28 27 28 0 31 -3 28 -27z
m-368 -1 c0 -21 -26 -60 -34 -51 -7 7 16 69 26 69 4 0 8 -8 8 -18z m159 -47
c-2 -18 2 -39 9 -48 10 -11 9 -17 -3 -27 -8 -7 -15 -21 -15 -31 0 -11 -4 -19
-10 -19 -5 0 -10 7 -10 16 0 9 -11 29 -25 46 -31 37 -32 54 -1 62 14 3 28 15
31 26 10 31 27 12 24 -25z m3774 -37 c-3 -16 -10 -28 -15 -28 -6 0 -7 7 -4 16
3 9 6 25 6 37 0 13 4 17 9 12 5 -6 7 -22 4 -37z m-2173 -17 c8 -33 16 -48 24
-45 7 3 19 -2 26 -11 11 -14 14 -13 27 5 17 25 29 25 38 3 4 -11 0 -23 -12
-33 -36 -30 -63 -73 -63 -101 0 -41 -20 -79 -42 -79 -10 0 -21 8 -24 18 -3 9
-9 24 -13 32 -4 8 -6 42 -3 75 3 48 1 64 -12 74 -19 16 -22 97 -3 104 34 14
45 6 57 -42z m-752 -9 c2 -13 -4 -33 -14 -43 -16 -17 -16 -22 -4 -29 8 -5 31
-7 51 -4 39 7 60 -9 40 -29 -6 -6 -11 -19 -11 -29 0 -29 -58 -25 -70 6 -7 18
-14 22 -34 19 -21 -4 -26 0 -32 21 -6 25 2 91 13 109 3 4 17 7 31 5 20 -2 28
-10 30 -26z m302 -12 c26 -26 26 -70 -1 -104 -26 -33 -59 -33 -88 -2 -20 21
-22 31 -16 63 4 21 11 44 17 51 16 19 66 14 88 -8z m2743 -1 c15 -23 -28 -66
-49 -48 -15 12 -19 51 -7 63 12 11 45 2 56 -15z m342 -19 c0 -44 -29 -54 -46
-16 -9 20 -9 29 1 41 22 27 45 14 45 -25z m-3858 14 c4 -11 -1 -22 -13 -31
-17 -12 -20 -11 -28 7 -7 16 -6 24 5 31 20 13 29 11 36 -7z m-287 -144 c0 -38
-34 -60 -58 -36 -23 23 -1 66 33 66 21 0 25 -5 25 -30z m914 -2 c8 -14 6 -22
-12 -40 -18 -18 -26 -20 -40 -12 -24 16 -27 45 -6 61 23 17 43 13 58 -9z
m-636 0 c16 -16 15 -23 -4 -43 -19 -18 -44 -4 -44 25 0 31 26 40 48 18z m408
-22 c15 -12 17 -19 8 -32 -21 -35 -42 -40 -65 -18 -43 44 7 87 57 50z m3252
-14 c4 -26 -26 -42 -38 -21 -11 16 7 52 23 46 7 -2 13 -13 15 -25z m252 3 c10
-12 10 -21 1 -41 -9 -21 -17 -25 -44 -22 -27 3 -33 7 -35 32 -5 43 50 65 78
31z m-3225 -41 c0 -10 -8 -20 -17 -22 -18 -3 -26 27 -11 42 12 11 28 0 28 -20z
m2183 -3 c2 -12 1 -34 -2 -47 -6 -24 -7 -24 -31 -7 -24 17 -34 61 -18 77 15
15 48 1 51 -23z m427 -18 c8 -20 14 -37 13 -38 -12 -7 -69 -27 -71 -24 -30 53
-45 88 -40 93 4 3 24 6 45 6 34 0 39 -4 53 -37z m-3001 -35 c38 -44 43 -70 14
-76 -21 -4 -76 35 -83 59 -6 19 10 59 24 59 4 0 24 -19 45 -42z m-276 -2 c5
-23 -23 -47 -44 -39 -15 5 -19 44 -7 57 13 13 48 1 51 -18z m3720 0 c5 -22
-16 -46 -39 -46 -26 0 -27 56 -1 63 26 7 37 2 40 -17z m300 -28 c-3 -40 -5
-43 -33 -43 -25 0 -31 4 -33 26 -4 31 20 59 49 59 17 0 20 -6 17 -42z m-4708
-3 c0 -8 -4 -15 -9 -15 -13 0 -22 16 -14 24 11 11 23 6 23 -9z m3616 -6 c15
-17 16 -23 6 -40 -9 -14 -9 -23 -1 -38 16 -24 6 -48 -25 -62 -51 -24 -82 15
-48 61 18 24 19 30 7 40 -12 10 -12 15 3 36 21 29 34 30 58 3z m418 8 c26 -19
17 -51 -17 -55 -32 -4 -44 16 -27 47 13 24 20 26 44 8z m-522 -21 c12 -17 9
-61 -3 -73 -16 -16 -58 5 -65 33 -9 34 11 63 38 56 13 -3 26 -10 30 -16z
m1108 -12 c0 -8 -7 -14 -15 -14 -15 0 -21 21 -9 33 10 9 24 -2 24 -19z m-3718
-1 c23 -20 23 -36 0 -56 -20 -18 -33 -12 -51 21 -24 45 12 70 51 35z m3053
-13 c-5 -8 -11 -8 -17 -2 -6 6 -7 16 -3 22 5 8 11 8 17 2 6 -6 7 -16 3 -22z
m-2776 -1 c69 -24 57 -76 -18 -81 -52 -3 -69 19 -52 65 12 30 23 32 70 16z
m131 -23 c-14 -14 -24 0 -16 21 6 15 8 15 16 3 6 -9 5 -19 0 -24z m2538 7 c2
-12 10 -27 18 -33 15 -14 19 -96 5 -119 -12 -18 -50 -5 -49 17 1 9 -8 37 -20
61 -26 54 -27 59 -5 83 21 24 47 19 51 -9z m-3042 -19 c-5 -13 -10 -14 -18 -6
-6 6 -8 18 -4 28 5 13 10 14 18 6 6 -6 8 -18 4 -28z m-628 -51 c-2 -17 -9 -28
-18 -28 -9 0 -16 11 -18 28 -3 22 1 27 18 27 17 0 21 -5 18 -27z m596 -12 c3
-5 -3 -20 -13 -32 -16 -20 -23 -22 -38 -13 -25 15 -29 45 -8 60 18 13 47 6 59
-15z m378 -55 c13 -31 4 -56 -21 -56 -12 0 -21 9 -25 24 -13 52 24 78 46 32z
m2606 -10 c7 -59 -59 -105 -72 -51 -7 29 6 59 32 74 25 15 37 8 40 -23z
m-2790 -38 c31 -21 27 -60 -8 -68 -15 -4 -26 -15 -30 -30 -8 -34 -30 -38 -30
-6 0 17 -7 29 -17 32 -10 3 -26 10 -36 15 -22 12 -87 -34 -87 -62 0 -14 -7
-19 -29 -19 -24 0 -33 7 -50 41 -23 44 -20 63 10 54 33 -11 127 17 137 40 8
18 18 21 63 21 33 -1 63 -7 77 -18z m3780 -5 c13 -25 3 -85 -17 -102 -9 -7
-11 -15 -6 -17 6 -2 26 -14 45 -25 38 -23 39 -19 -25 -64 -20 -13 -20 -14 3
-30 16 -12 21 -22 16 -41 -8 -32 12 -57 36 -44 15 8 18 2 23 -57 5 -52 3 -71
-8 -83 -21 -24 -19 -43 9 -69 21 -19 23 -26 13 -42 -9 -14 -9 -21 1 -31 9 -9
8 -16 -5 -30 -14 -15 -14 -22 -4 -45 20 -45 15 -159 -9 -200 -21 -36 -35 -122
-24 -155 6 -19 48 -25 59 -8 10 16 33 12 56 -11 16 -16 18 -23 8 -35 -13 -16
-52 -18 -77 -4 -9 5 -29 14 -44 20 -16 5 -28 16 -28 25 0 10 -10 15 -29 15
-15 0 -40 9 -55 21 -22 17 -31 19 -56 10 -26 -8 -32 -7 -44 11 -14 20 -16 20
-22 3 -5 -12 -1 -22 10 -30 24 -18 3 -29 -39 -21 -20 4 -44 19 -60 38 -14 17
-40 34 -58 37 -26 5 -33 12 -35 35 -3 21 -7 26 -20 20 -48 -20 -70 -17 -86 15
-13 25 -23 31 -49 31 -24 0 -41 9 -61 29 -31 33 -27 54 9 45 12 -3 26 -1 30 6
4 6 18 15 31 20 36 14 33 62 -5 89 -34 24 -69 28 -67 7 2 -30 -19 -16 -28 16
-6 26 -4 43 9 71 16 35 16 37 -4 58 -25 27 -31 22 -51 -44 -13 -42 -22 -55
-50 -70 l-35 -17 -3 32 c-2 18 -12 40 -22 48 -10 8 -21 30 -25 47 -6 28 -3 34
18 44 18 8 30 8 46 0 26 -14 41 -7 41 20 0 11 11 31 24 43 12 13 26 31 29 41
10 23 29 8 21 -17 -4 -15 -2 -19 7 -16 18 6 26 46 28 135 1 61 4 74 20 83 31
16 41 12 41 -15 0 -14 7 -28 15 -31 15 -6 20 -35 9 -47 -4 -3 -15 -2 -25 4
-16 8 -21 6 -27 -13 -5 -13 -8 -39 -8 -58 1 -33 3 -35 39 -38 44 -4 48 -22 12
-58 -27 -27 -33 -54 -12 -54 18 0 61 -46 53 -58 -3 -5 -21 -17 -41 -26 -22
-11 -35 -24 -35 -36 0 -23 8 -25 29 -6 21 17 111 30 111 15 0 -22 74 2 100 32
22 26 29 28 67 23 40 -6 43 -9 49 -43 3 -20 7 -40 8 -45 2 -11 77 -36 88 -30
16 10 8 65 -14 94 -20 27 -20 31 -6 47 18 20 12 89 -11 131 -16 30 -7 42 33
42 l32 0 -4 68 c-3 43 -9 70 -18 75 -19 11 -18 37 3 77 12 25 13 35 5 38 -21
7 -42 33 -42 50 1 18 66 71 87 72 7 0 16 -8 21 -17z m-191 -9 c7 -18 -20 -44
-44 -44 -20 0 -16 48 5 53 30 8 32 7 39 -9z m-4083 -27 c-8 -21 -23 -22 -31
-1 -7 18 17 38 30 25 4 -4 5 -15 1 -24z m3844 7 c3 -23 -32 -59 -47 -49 -17
10 -13 53 7 64 23 14 36 9 40 -15z m-3218 -25 c0 -22 -9 -40 -31 -60 -36 -33
-47 -36 -56 -12 -4 11 1 22 15 31 12 8 22 24 22 37 0 26 8 35 32 35 14 0 18
-8 18 -31z m2558 -7 c3 -30 1 -32 -27 -32 -26 0 -31 4 -31 25 0 24 25 47 45
41 6 -1 11 -17 13 -34z m-3093 -2 c0 -18 -8 -27 -28 -34 -39 -14 -54 4 -31 38
22 35 59 32 59 -4z m3335 -41 c0 -17 39 -30 59 -20 24 13 42 -6 34 -37 -4 -15
-1 -22 9 -22 8 0 23 -9 33 -20 15 -16 16 -25 8 -43 -6 -12 -14 -30 -17 -39 -7
-23 -34 -23 -58 -1 -22 20 -23 56 -3 73 25 21 17 30 -25 30 -23 0 -52 7 -65
16 -20 13 -28 14 -39 4 -8 -6 -13 -17 -10 -24 3 -7 -7 -29 -21 -50 -33 -48
-34 -103 -2 -115 28 -11 69 -67 65 -89 -8 -42 -83 -17 -97 32 -8 31 -15 34
-57 21 -18 -6 -24 0 -36 31 -15 37 -14 40 19 106 20 38 43 73 54 78 10 6 26
26 35 46 23 48 60 67 91 47 13 -9 23 -19 23 -24z m276 16 c13 -50 -46 -77 -68
-31 -15 35 -4 56 31 56 24 0 32 -5 37 -25z m-3362 -53 c7 -20 69 -42 89 -31
16 10 114 -46 131 -74 9 -14 6 -21 -14 -37 -41 -31 -67 -30 -112 3 -23 16 -53
33 -67 37 -17 4 -27 15 -29 29 -2 13 -12 26 -23 28 -20 6 -34 36 -24 53 10 16
43 11 49 -8z m2911 8 c11 -17 -5 -50 -24 -50 -24 0 -45 25 -37 45 6 17 51 21
61 5z m-3135 -8 c0 -5 -7 -23 -16 -40 -11 -23 -22 -32 -40 -32 -33 0 -32 33 4
59 28 21 52 27 52 13z m-495 -42 c0 -16 -6 -26 -17 -28 -14 -3 -18 3 -18 28 0
25 4 31 18 28 11 -2 17 -12 17 -28z m4329 -3 c17 -13 17 -15 2 -45 -9 -18 -23
-32 -30 -32 -17 0 -27 37 -19 68 6 25 21 28 47 9z m-584 -93 c0 -8 -4 -14 -10
-14 -5 0 -10 9 -10 21 0 11 5 17 10 14 6 -3 10 -13 10 -21z m-3107 4 c2 -7 0
-26 -6 -41 -7 -21 -15 -27 -31 -25 -24 3 -34 41 -16 64 15 17 47 18 53 2z
m4190 -4 c9 -10 -14 -52 -32 -57 -42 -11 -55 21 -18 46 24 17 40 21 50 11z
m-4939 -32 c3 -5 -6 -19 -19 -30 -19 -17 -23 -28 -19 -51 5 -21 1 -34 -15 -50
-12 -12 -21 -32 -21 -46 0 -21 5 -25 31 -25 17 0 40 5 51 11 14 8 23 8 31 0 8
-8 7 -11 -4 -11 -21 0 -53 -36 -44 -49 9 -15 82 -14 88 2 4 9 7 9 18 -1 12
-12 11 -16 -8 -29 -30 -20 -29 -29 3 -37 40 -10 74 -36 74 -57 0 -11 16 -29
37 -42 33 -21 39 -22 49 -9 9 13 17 13 45 3 86 -30 155 -104 128 -138 -9 -10
-26 -14 -56 -11 l-44 3 7 -30 c6 -26 5 -28 -10 -16 -19 16 -46 8 -46 -14 0 -9
-9 -15 -25 -15 -19 0 -25 5 -25 23 -1 48 -54 84 -100 68 -16 -5 -39 -7 -51 -4
-15 4 -26 0 -35 -12 -13 -17 -14 -17 -14 -2 0 9 -6 17 -12 17 -7 1 -20 16 -29
35 -14 31 -14 37 -1 65 9 19 20 29 28 26 8 -3 14 0 14 7 -1 7 -33 33 -73 58
-65 42 -73 51 -85 93 -7 29 -18 46 -27 46 -8 0 -15 4 -15 8 0 15 40 92 58 112
32 35 40 47 47 71 4 13 13 27 19 31 15 10 44 10 50 0z m250 -8 c14 -36 -39
-59 -64 -29 -7 8 -24 15 -37 15 -22 0 -24 2 -13 15 18 22 106 21 114 -1z m690
-40 c8 -20 -24 -64 -44 -61 -19 3 -25 44 -10 63 16 19 46 18 54 -2z m-79 -5
c4 -5 4 -21 1 -35 -5 -19 -13 -24 -36 -24 -34 0 -44 12 -36 46 5 19 13 24 36
24 16 0 32 -5 35 -11z m-85 -43 c0 -23 -26 -48 -46 -45 -12 3 -20 14 -22 31
-3 21 1 27 20 30 30 5 48 -1 48 -16z m3598 -24 c3 -16 -4 -25 -23 -32 -51 -19
-58 -9 -24 34 24 31 42 30 47 -2z m-4358 -3 c0 -5 -7 -9 -15 -9 -15 0 -20 12
-9 23 8 8 24 -1 24 -14z m164 -17 c10 -16 32 -34 47 -39 35 -14 45 -36 31 -69
-23 -49 -72 -23 -72 37 0 30 -4 38 -22 43 -15 3 -27 0 -34 -9 -15 -21 -24 -19
-24 5 0 11 -4 20 -10 20 -5 0 -10 9 -10 20 0 16 7 20 38 20 30 0 41 -6 56 -28z
m826 -27 c0 -35 -29 -63 -50 -50 -19 12 -11 63 12 79 28 20 38 12 38 -29z
m-439 -25 c26 -14 24 -31 -6 -53 -25 -18 -25 -18 -34 5 -5 13 -5 30 1 41 10
20 13 20 39 7z m55 -96 c4 -14 2 -30 -4 -36 -13 -13 -62 -2 -62 14 0 16 31 48
46 48 8 0 17 -12 20 -26z m104 -28 c0 -22 -26 -43 -38 -31 -7 7 19 55 30 55 4
0 8 -11 8 -24z m-120 -45 c18 -35 12 -51 -19 -51 -32 0 -45 25 -29 54 12 22
35 20 48 -3z m76 -73 c-10 -6 -20 -7 -24 -3 -9 8 20 25 31 18 5 -3 2 -10 -7
-15z m3400 14 c6 -4 18 -22 27 -40 15 -31 15 -33 -5 -52 -26 -24 -66 -32 -133
-28 -37 2 -51 7 -53 20 -4 20 44 48 83 48 20 0 25 5 25 23 0 13 3 27 7 30 8 9
35 9 49 -1z m-3336 -43 c22 -40 -7 -62 -50 -39 -15 8 -16 13 -7 35 15 30 42
32 57 4z m2973 -16 c20 -28 24 -41 16 -55 -9 -17 -11 -17 -34 -2 -20 13 -25
25 -25 55 0 22 4 39 8 39 5 0 21 -16 35 -37z m1427 -34 c0 -14 -7 -19 -25 -19
-29 0 -31 7 -9 31 19 21 34 16 34 -12z m-1500 -24 c0 -7 7 -15 15 -19 8 -3 15
-12 15 -21 0 -25 -67 -20 -81 7 -10 18 -8 24 12 39 25 18 39 17 39 -6z m1280
-16 c0 -18 -1 -19 -25 -3 -25 17 -30 26 -19 37 12 11 44 -13 44 -34z m-1067
14 c20 -4 27 -11 27 -29 0 -28 16 -31 42 -8 14 14 20 14 33 4 21 -17 19 -37
-4 -50 -28 -14 -38 -13 -60 11 -13 14 -26 19 -40 14 -16 -5 -29 2 -51 24 -38
38 -39 56 -2 47 15 -4 39 -10 55 -13z m-4047 -19 c9 -34 -10 -74 -35 -74 -23
0 -51 36 -51 66 0 28 8 34 46 34 28 0 35 -5 40 -26z m914 -40 c11 -36 20 -72
20 -79 0 -7 6 -26 14 -42 31 -61 54 -131 66 -206 7 -43 18 -81 25 -85 6 -4 21
-41 33 -82 20 -73 30 -107 53 -172 7 -18 14 -51 17 -73 2 -22 11 -49 19 -62 8
-12 17 -47 20 -77 6 -58 19 -70 41 -36 29 47 72 10 72 -61 0 -34 -31 -52 -67
-38 -29 11 -32 -2 -20 -96 13 -99 14 -232 4 -530 -9 -275 -14 -311 -44 -308
-32 4 -163 140 -163 170 0 5 -18 29 -40 53 -22 24 -40 48 -40 55 0 6 -12 27
-26 46 -14 19 -30 44 -34 56 -31 78 -163 226 -292 328 -89 70 -112 106 -113
175 0 50 15 95 56 172 5 10 9 23 9 31 0 7 10 30 21 52 19 36 51 117 66 170 45
158 66 222 78 235 8 9 15 27 15 39 0 12 5 32 12 44 14 25 29 64 59 152 11 33
33 92 48 130 16 39 32 78 35 88 12 37 35 17 56 -49z m-218 9 c15 -15 28 -32
28 -38 0 -19 -59 -57 -83 -53 -18 3 -22 9 -21 41 1 32 26 77 43 77 2 0 18 -12
33 -27z m3626 -3 c12 -12 22 -30 22 -42 0 -20 31 -127 50 -173 5 -11 12 -31
15 -45 4 -14 15 -43 25 -65 10 -22 30 -67 45 -100 14 -33 37 -80 50 -105 106
-203 131 -249 165 -299 21 -31 48 -78 60 -106 13 -27 27 -58 31 -68 5 -9 12
-44 15 -76 l7 -58 -76 -49 c-42 -27 -109 -70 -149 -96 -40 -25 -107 -79 -148
-119 -41 -39 -93 -86 -115 -103 -22 -18 -85 -76 -140 -129 -171 -163 -214
-190 -245 -152 -10 12 -11 36 -1 118 6 56 16 167 21 247 19 293 39 405 129
735 17 61 31 119 31 130 0 11 9 37 20 58 26 48 25 57 -4 57 -14 0 -28 5 -31
10 -3 6 -18 10 -33 10 -28 0 -92 54 -92 77 0 22 37 14 54 -12 17 -27 56 -34
56 -11 0 7 -7 19 -15 26 -24 20 -18 40 11 40 22 0 26 -4 22 -24 -4 -19 0 -26
16 -30 62 -17 85 6 63 63 -10 26 -7 33 21 65 17 20 34 49 37 64 3 15 13 41 21
57 8 17 17 51 20 78 4 26 10 47 13 47 4 0 17 -9 29 -20z m-78 -31 c0 -11 -4
-17 -10 -14 -5 3 -10 13 -10 21 0 8 5 14 10 14 6 0 10 -9 10 -21z m890 -70 c0
-5 -7 -9 -15 -9 -9 0 -15 9 -15 21 0 18 2 19 15 9 8 -7 15 -16 15 -21z m-4546
-1 c13 -22 -6 -42 -46 -52 -26 -6 -28 -4 -28 27 0 19 3 37 7 41 12 12 56 2 67
-16z m512 6 c22 -10 37 -27 44 -48 14 -44 4 -66 -30 -66 -23 0 -32 8 -54 51
-20 40 -24 55 -15 65 14 17 14 17 55 -2z m2968 -34 c18 -18 -3 -38 -39 -38
-38 0 -52 15 -41 44 5 12 14 14 38 9 18 -4 37 -11 42 -15z m80 14 c32 -12 11
-64 -26 -64 -21 0 -25 39 -6 58 14 14 12 14 32 6z m1203 -60 c20 -31 9 -57
-28 -62 -13 -2 -39 -17 -57 -33 -38 -34 -52 -30 -52 11 0 21 8 35 26 47 14 9
30 27 35 40 12 32 53 31 76 -3z m-5600 -28 c-4 -9 -13 -16 -22 -16 -18 0 -19
5 -4 32 13 24 35 9 26 -16z m4851 -13 c11 -26 18 -51 16 -55 -7 -11 -62 -10
-83 2 -28 14 -33 38 -16 71 25 47 58 40 83 -18z m343 1 c11 -14 9 -19 -11 -35
-28 -21 -39 -20 -53 3 -25 38 34 68 64 32z m-3835 -128 c-7 -28 -27 -34 -45
-12 -12 14 -5 46 13 58 19 12 39 -18 32 -46z m3767 9 c-3 -10 2 -15 16 -15 32
0 45 -43 30 -101 -12 -47 -8 -79 11 -79 5 0 10 8 10 19 0 10 6 24 14 31 8 6
16 25 18 42 4 39 28 51 28 14 0 -16 6 -26 15 -26 9 0 15 9 15 25 0 21 5 25 29
25 17 0 33 5 36 10 10 16 118 0 133 -19 10 -12 12 -36 8 -93 -4 -66 -3 -79 11
-87 21 -11 19 -73 -2 -99 -8 -9 -28 -32 -44 -50 -17 -19 -32 -51 -36 -73 -9
-52 -25 -57 -69 -24 -61 46 -94 7 -36 -42 33 -27 38 -48 14 -57 -10 -4 -27 5
-46 24 -16 17 -38 30 -49 30 -11 0 -24 11 -31 25 -12 27 -28 33 -28 12 0 -15
-49 -54 -71 -57 -34 -5 -41 0 -36 27 3 15 -1 40 -9 55 -18 34 -7 41 49 34 l42
-6 -42 21 c-33 15 -43 25 -43 44 0 13 -3 30 -6 39 -4 9 -1 16 6 16 7 0 32 12
56 28 45 28 56 56 32 80 -17 17 -28 15 -28 -7 0 -22 -4 -26 -42 -35 -22 -5
-28 -3 -28 10 0 9 -14 29 -31 45 -17 16 -27 30 -23 30 5 1 14 2 19 4 6 1 18 3
29 3 15 2 17 7 11 30 -13 44 -13 111 -1 121 6 5 20 11 31 13 11 2 21 9 21 16
2 21 4 23 14 17 5 -3 7 -12 3 -20z m177 15 c0 -5 -7 -10 -15 -10 -8 0 -15 5
-15 10 0 6 7 10 15 10 8 0 15 -4 15 -10z m-1309 -40 c22 -13 52 -67 44 -80 -8
-14 -31 -12 -56 3 -18 10 -23 9 -40 -15 -27 -36 -37 -35 -54 4 -11 29 -11 36
3 60 9 15 27 29 41 31 14 2 30 5 34 6 5 0 17 -4 28 -9z m-3898 -31 c8 -13 4
-24 -16 -49 -31 -36 -33 -50 -12 -90 14 -27 14 -30 -5 -40 -16 -9 -19 -19 -17
-63 2 -28 8 -51 13 -49 5 1 9 11 9 21 1 10 12 32 27 49 14 17 28 36 30 42 2 6
17 12 33 13 26 2 30 -2 33 -25 3 -21 -5 -36 -33 -61 -30 -28 -35 -38 -30 -60
6 -21 13 -27 34 -27 32 0 51 -16 51 -45 0 -12 6 -27 13 -34 10 -10 7 -16 -15
-33 -28 -19 -37 -51 -19 -63 5 -3 12 -1 16 5 9 15 42 12 48 -4 9 -22 -22 -58
-44 -51 -15 5 -19 1 -19 -19 0 -25 15 -43 24 -28 2 4 21 6 40 4 30 -3 36 -8
36 -27 0 -13 -10 -30 -25 -39 -17 -11 -25 -26 -25 -46 0 -36 -14 -38 -35 -6
-9 13 -28 27 -43 31 -59 15 -92 73 -55 100 15 11 15 15 4 29 -7 9 -18 16 -24
16 -5 0 -16 8 -22 17 -12 17 -14 17 -34 -1 -17 -15 -23 -16 -36 -6 -23 19 -18
49 15 82 36 35 37 42 8 62 -13 9 -36 26 -51 38 -72 59 -77 66 -77 107 0 22 5
43 10 46 6 3 7 23 4 44 -5 31 -1 43 21 69 19 23 31 30 39 23 17 -14 33 -1 50
41 21 50 57 62 79 27z m681 -11 c14 -23 -3 -52 -33 -56 -25 -4 -36 17 -27 54
8 29 42 30 60 2z m4176 -33 c0 -13 6 -25 13 -28 6 -2 9 -8 5 -12 -4 -4 -21 3
-38 15 -30 21 -30 23 -14 41 20 22 34 16 34 -16z m-4562 2 c2 -9 -4 -20 -12
-23 -21 -8 -46 13 -39 32 8 20 47 13 51 -9z m-258 -63 c0 -8 -10 -14 -25 -14
-27 0 -32 9 -14 27 14 14 39 6 39 -13z m231 -76 c18 -29 -41 -68 -103 -68 -29
0 -24 64 5 78 26 14 87 8 98 -10z m4629 -19 c16 -37 3 -54 -35 -45 -34 9 -42
32 -20 56 25 28 41 25 55 -11z m-4405 1 c0 -9 -11 -16 -27 -18 -27 -3 -38 14
-21 32 12 12 48 2 48 -14z m3375 10 c0 -6 12 -15 26 -20 14 -6 22 -14 19 -20
-7 -11 -35 -13 -59 -4 -24 9 -19 54 6 54 4 0 8 -5 8 -10z m-2276 -25 c7 -20
-10 -65 -26 -65 -8 0 -6 -5 5 -11 24 -14 22 -56 -4 -69 -24 -13 -79 -4 -79 13
0 7 -3 22 -6 35 -5 19 -2 22 21 22 24 0 26 2 15 15 -11 13 -11 20 0 40 18 34
64 46 74 20z m-156 -23 c-1 -15 1 -33 6 -40 4 -7 1 -15 -8 -18 -9 -3 -16 -16
-16 -29 0 -31 -24 -49 -56 -41 -20 5 -25 12 -22 34 3 23 8 27 41 30 l38 3 -7
45 c-5 37 -4 44 10 44 12 0 16 -8 14 -28z m2677 -62 c0 -16 -6 -26 -19 -28
-27 -6 -40 12 -26 38 15 28 45 22 45 -10z m-86 -3 c8 -11 6 -18 -8 -31 -16
-15 -19 -15 -24 -1 -7 17 1 45 13 45 4 0 13 -6 19 -13z m-2224 -58 c5 -22 1
-30 -23 -48 -17 -11 -36 -21 -42 -21 -7 0 -18 -7 -25 -17 -31 -42 -62 27 -35
78 9 15 14 17 29 8 14 -10 22 -7 45 16 29 29 41 26 51 -16z m-1955 -24 c10
-12 10 -18 0 -30 -26 -32 -68 -8 -54 30 4 8 14 15 24 15 10 0 23 -7 30 -15z
m678 3 c17 -17 15 -45 -5 -57 -20 -11 -73 15 -73 36 0 27 57 42 78 21z m927
-10 c52 -24 10 -79 -49 -64 -20 5 -26 13 -26 35 0 15 3 31 7 34 10 10 39 8 68
-5z m167 -78 c7 -11 21 -20 30 -20 20 0 40 -31 30 -46 -12 -18 -50 -23 -63 -8
-7 8 -21 11 -40 7 -27 -5 -29 -3 -29 25 0 21 7 36 22 46 29 21 35 20 50 -4z
m2438 6 c0 -17 -24 -38 -33 -29 -15 15 -6 43 13 43 11 0 20 -6 20 -14z m-222
-34 c2 -23 -1 -32 -12 -32 -16 0 -24 25 -18 53 7 28 27 14 30 -21z m83 -3 c13
-25 0 -43 -27 -37 -12 2 -20 13 -22 31 -3 22 1 27 17 27 11 0 25 -9 32 -21z
m-3371 -81 c-17 -80 -25 -97 -58 -109 -21 -8 -29 -7 -39 6 -11 16 -11 25 4 63
4 9 7 28 7 42 1 19 11 30 46 47 25 12 47 19 49 17 2 -2 -2 -32 -9 -66z m1228
-1 c3 -43 1 -48 -24 -57 -30 -12 -88 -4 -103 14 -7 8 2 25 27 54 30 34 43 42
67 40 28 -3 30 -6 33 -51z m-1928 26 c0 -5 -4 -14 -9 -21 -7 -11 -9 -11 -14 1
-3 8 -3 18 0 21 9 8 23 7 23 -1z m1705 -14 c5 -15 1 -28 -13 -41 -23 -24 -42
-17 -42 16 0 43 43 63 55 25z m3666 -39 c24 0 24 -27 1 -58 -16 -21 -19 -21
-40 -7 -16 12 -22 26 -22 54 0 47 11 59 29 32 7 -12 22 -21 32 -21z m-3087
-39 c11 -12 25 -21 33 -21 7 0 13 -4 13 -9 0 -5 -8 -8 -17 -7 -12 1 -19 -7
-21 -22 -2 -13 -12 -32 -23 -43 -11 -11 -19 -33 -19 -54 0 -28 -4 -36 -24 -41
-40 -10 -49 3 -43 59 2 29 -1 64 -8 81 -16 39 -10 53 28 76 33 20 49 17 81
-19z m-533 -5 c8 -17 8 -29 0 -45 -15 -26 -33 -27 -56 -1 -17 18 -17 21 -1 45
21 31 43 32 57 1z m357 -8 c6 -6 12 -26 12 -44 0 -27 -4 -34 -19 -34 -11 0
-23 -4 -26 -10 -3 -5 -17 -10 -31 -10 -16 0 -24 -6 -24 -18 0 -50 -71 -86 -85
-43 -9 29 5 69 25 76 15 5 17 13 13 44 -5 35 -3 39 22 48 32 10 94 5 113 -9z
m2040 -21 c4 -36 -23 -47 -50 -19 -28 27 -17 54 19 50 22 -2 29 -9 31 -31z
m-1720 11 c18 -18 15 -75 -4 -82 -35 -14 -76 39 -60 79 7 18 47 20 64 3z
m1347 -33 c0 -38 -2 -40 -30 -40 -34 0 -41 17 -25 59 7 20 16 27 33 24 19 -3
22 -9 22 -43z m143 19 c4 -25 -22 -49 -43 -40 -15 5 -21 47 -8 60 14 14 48 1
51 -20z m1787 -34 c6 -20 -9 -60 -23 -60 -14 0 -32 23 -32 40 0 37 44 54 55
20z m-4020 -27 c-14 -58 -65 -86 -65 -36 0 32 26 63 53 63 16 0 18 -5 12 -27z
m178 -43 c-1 -25 -3 -52 -4 -60 -1 -8 0 -21 2 -29 5 -19 -29 -27 -45 -11 -8 8
-6 15 8 25 19 14 18 15 -7 36 -45 35 -30 93 23 87 23 -3 25 -7 23 -48z m698 6
c26 -57 22 -80 -14 -84 -51 -6 -122 90 -90 121 3 4 24 7 45 7 35 0 39 -3 59
-44z m-2511 -3 c28 -27 40 -46 40 -65 0 -16 -4 -28 -9 -28 -5 0 -16 -3 -25 -6
-10 -4 -27 6 -48 30 -17 20 -38 36 -45 36 -22 0 -27 29 -8 50 26 29 50 25 95
-17z m523 3 c3 -8 0 -22 -8 -33 -13 -17 -14 -17 -20 0 -8 20 0 47 14 47 5 0
11 -6 14 -14z m2095 2 c29 -29 7 -78 -35 -78 -17 0 -23 7 -29 34 -3 19 -3 39
1 45 8 15 48 14 63 -1z m-952 -85 c9 -35 -26 -65 -70 -61 -27 3 -31 7 -34 37
-4 40 9 51 60 51 32 0 39 -4 44 -27z m624 8 c5 -11 10 -29 10 -40 0 -14 6 -21
20 -21 38 0 16 -74 -24 -84 -22 -5 -26 -12 -26 -45 0 -22 -5 -41 -12 -44 -22
-8 -58 12 -70 39 -11 24 -10 28 15 46 15 11 27 29 27 40 0 17 -4 19 -25 14
-18 -5 -25 -2 -25 9 0 18 14 19 41 5 15 -9 21 -7 25 5 4 9 2 21 -5 28 -16 16
-13 45 7 56 24 15 30 14 42 -8z m-1954 -15 c8 -32 -2 -46 -32 -46 -20 0 -24 5
-24 29 0 44 45 58 56 17z m1594 -21 c15 -18 6 -45 -15 -45 -18 0 -30 24 -21
45 7 19 20 19 36 0z m191 -1 c37 -18 36 -52 -1 -71 -13 -6 -28 -21 -32 -33
-10 -27 -44 -23 -40 5 2 11 4 37 5 58 1 21 9 42 17 47 19 12 16 13 51 -6z
m1260 6 c12 -7 19 -21 19 -40 0 -27 3 -30 31 -30 31 0 32 -1 26 -39 -3 -27 -1
-41 8 -45 32 -12 20 -119 -15 -141 -5 -3 -10 -15 -10 -25 0 -12 -10 -21 -30
-25 -38 -8 -50 0 -50 35 0 15 -6 30 -14 33 -7 3 -16 20 -18 38 -4 26 0 38 20
56 14 13 23 26 20 29 -10 9 -87 -18 -104 -38 -21 -22 -79 -24 -88 -3 -8 23 9
60 40 84 20 15 41 21 80 21 50 0 68 10 44 25 -14 9 -13 48 2 63 15 15 15 15
39 2z m-783 -43 c3 -23 0 -27 -22 -27 -26 0 -32 13 -20 45 10 25 39 13 42 -18z
m550 11 c20 -17 14 -36 -20 -68 -41 -37 -81 -37 -86 -1 -2 15 3 28 12 33 9 5
16 20 16 34 0 24 3 25 33 19 17 -4 38 -12 45 -17z m992 7 c18 -21 5 -45 -25
-45 -27 0 -35 26 -13 48 16 16 23 15 38 -3z m-1402 -69 c12 -11 22 -27 22 -37
0 -42 -64 -66 -90 -34 -17 20 -40 19 -40 -2 0 -10 -4 -24 -9 -32 -8 -12 -12
-12 -25 -2 -23 19 -20 68 4 81 11 6 20 20 20 31 0 43 66 41 118 -5z m1235 23
c3 -13 0 -22 -9 -26 -20 -8 -36 10 -28 30 9 24 31 21 37 -4z m-3958 -15 c32
-32 -5 -73 -40 -44 -18 15 -19 47 -2 53 20 9 25 8 42 -9z m2528 -74 c12 -53
14 -80 7 -92 -16 -28 -13 -40 9 -29 14 8 25 6 45 -10 34 -27 33 -44 -3 -59
-35 -14 -51 -7 -51 23 -1 20 -2 20 -11 5 -23 -41 -78 -6 -77 48 1 16 -4 39
-10 51 -7 13 -9 41 -6 70 9 72 10 75 46 71 32 -3 33 -5 51 -78z m-165 -6 c-4
-23 -26 -30 -34 -10 -8 20 15 51 29 37 5 -5 7 -17 5 -27z m672 -12 c14 -16 37
-36 51 -45 25 -15 27 -15 32 3 3 11 10 20 16 20 19 0 12 -46 -10 -74 -15 -19
-20 -36 -16 -55 11 -54 6 -55 -155 -51 -21 1 -50 0 -66 -1 -43 -4 -82 10 -82
28 0 8 -10 31 -21 50 -19 30 -20 38 -9 59 26 48 86 16 119 -65 8 -17 20 -31
27 -31 17 0 18 22 3 37 -15 15 -3 33 22 33 27 0 24 28 -6 42 -29 13 -33 43 -8
71 24 25 70 16 103 -21z m-1432 -28 c3 -23 -21 -49 -38 -39 -11 7 -14 48 -3
59 13 13 38 1 41 -20z m2516 -10 c22 -8 20 -31 -3 -44 -30 -16 -41 -12 -41 13
0 35 12 43 44 31z m-2129 -28 c13 -19 14 -29 5 -45 -22 -43 -100 -34 -100 11
0 54 67 77 95 34z m246 -39 c35 5 39 3 45 -21 4 -16 1 -32 -6 -41 -14 -17 -56
-20 -65 -5 -4 6 -22 17 -41 25 -37 15 -44 38 -16 54 12 7 21 6 31 -3 8 -9 27
-12 52 -9z m-411 -38 c0 -5 -7 -9 -15 -9 -15 0 -20 12 -9 23 8 8 24 -1 24 -14z
m-970 -14 c0 -7 -7 -18 -15 -25 -26 -22 -49 12 -24 37 14 14 39 6 39 -12z
m1560 1 c0 -26 -24 -51 -40 -41 -11 7 -14 48 -3 58 3 4 15 7 25 7 12 0 18 -7
18 -24z m1495 0 c16 -12 17 -16 6 -30 -17 -20 -65 -21 -81 -1 -28 34 35 61 75
31z m-2808 -31 c8 -22 1 -26 -46 -31 -46 -5 -52 6 -18 29 29 21 56 21 64 2z
m603 -30 c0 -28 -25 -44 -42 -27 -7 7 -6 17 1 31 16 30 41 27 41 -4z m1691 5
c24 -13 26 -68 3 -77 -37 -14 -70 41 -44 73 15 17 16 17 41 4z m-659 -12 c40
-33 64 -107 39 -122 -17 -11 -59 13 -86 48 -26 34 -27 37 -11 61 18 28 34 31
58 13z m1934 -28 c1 -14 2 -29 4 -35 9 -34 -17 -48 -39 -21 -9 10 -8 16 4 26
14 12 14 15 0 30 -17 18 -10 32 15 28 8 -2 15 -14 16 -28z m-2488 -4 c5 -25
-12 -39 -37 -31 -24 7 -27 25 -9 43 17 17 42 11 46 -12z m944 -3 c37 -35 35
-46 -8 -66 -36 -18 -58 -14 -83 16 -9 12 -6 21 18 46 16 17 33 31 37 31 4 0
21 -12 36 -27z m-1115 -15 c26 -14 44 -32 48 -46 3 -13 15 -36 26 -51 38 -52
2 -78 -93 -69 -37 4 -55 11 -68 28 -17 22 -13 44 25 148 6 17 14 15 62 -10z
m553 -6 c0 -55 -71 -97 -78 -46 -4 26 34 74 59 74 14 0 19 -7 19 -28z m1870
13 c0 -8 -7 -15 -15 -15 -8 0 -15 7 -15 15 0 8 7 15 15 15 8 0 15 -7 15 -15z
m-692 -17 c-3 -25 -17 -32 -37 -19 -19 12 -6 41 19 41 16 0 21 -5 18 -22z
m-1090 -18 c30 -28 29 -67 -3 -82 -60 -27 -103 40 -52 83 28 23 29 23 55 -1z
m860 -16 c2 -11 -4 -26 -12 -33 -12 -10 -17 -9 -25 8 -6 11 -8 27 -5 36 9 22
38 14 42 -11z m-1674 0 c9 -8 16 -21 16 -29 0 -16 -77 -55 -96 -48 -23 9 -16
50 12 72 32 25 47 26 68 5z m1581 6 c8 -13 -4 -50 -16 -50 -13 0 -22 27 -15
45 6 17 22 20 31 5z m-3067 -28 c4 -25 -23 -41 -40 -24 -7 7 -6 17 2 32 14 26
34 22 38 -8z m1200 -43 c-2 -18 -9 -24 -28 -24 -34 0 -40 37 -8 52 28 13 41 3
36 -28z m916 17 c15 -23 13 -56 -3 -56 -17 0 -51 33 -51 49 0 38 31 42 54 7z
m1481 15 c5 -10 -21 -41 -35 -41 -11 0 -21 30 -14 41 7 12 41 12 49 0z m-1005
-16 c16 -19 -5 -75 -28 -75 -9 0 -26 -12 -38 -27 -19 -24 -24 -26 -38 -14 -22
19 -20 33 12 85 21 35 33 45 53 46 15 0 32 -7 39 -15z m-1240 -20 c0 -9 -7
-18 -16 -22 -18 -7 -39 11 -30 26 11 17 46 13 46 -4z m1828 -62 c-4 -22 -22
-20 -26 1 -2 10 3 16 13 16 10 0 15 -7 13 -17z m152 -19 c0 -27 -25 -43 -42
-26 -8 8 -6 18 6 37 20 30 36 25 36 -11z m-1440 -1 c-1 -18 -40 -53 -59 -53
-24 0 -25 1 -9 35 8 18 19 25 40 25 15 0 28 -3 28 -7z m822 -10 c24 -11 38
-23 36 -32 -4 -22 -37 -26 -52 -6 -11 15 -13 15 -25 1 -17 -20 -31 -12 -31 18
0 41 14 44 72 19z m196 -31 c3 -16 -5 -27 -26 -39 -16 -9 -36 -29 -45 -45 -11
-19 -23 -28 -34 -26 -28 5 -27 37 1 63 14 13 26 33 26 44 0 38 73 41 78 3z
m-1260 -24 c3 -34 0 -39 -37 -57 -22 -12 -42 -30 -46 -41 -3 -11 -13 -20 -22
-20 -13 0 -14 8 -8 47 8 53 24 81 57 100 37 20 53 12 56 -29z m2462 2 c0 -5
-7 -10 -15 -10 -8 0 -15 5 -15 10 0 6 7 10 15 10 8 0 15 -4 15 -10z m-2349
-10 c25 -14 24 -41 -2 -74 -24 -30 -36 -32 -61 -9 -22 20 -23 51 -1 75 18 20
36 23 64 8z m179 -15 c24 -28 -18 -80 -50 -60 -11 7 -14 58 -3 68 11 12 40 8
53 -8z m448 3 c14 -14 16 -64 2 -73 -19 -12 -50 15 -50 44 0 41 22 55 48 29z
m-198 -28 c0 -10 -5 -22 -10 -25 -13 -8 -24 20 -16 41 8 20 26 9 26 -16z m810
10 c0 -21 -15 -27 -25 -10 -7 12 2 30 16 30 5 0 9 -9 9 -20z m596 9 c10 -17
-13 -36 -27 -22 -12 12 -4 33 11 33 5 0 12 -5 16 -11z m-2336 -29 c0 -21 -15
-27 -25 -10 -7 12 2 30 16 30 5 0 9 -9 9 -20z m2769 -13 c6 -8 14 -28 17 -46
5 -25 2 -37 -16 -56 -13 -14 -27 -25 -30 -25 -13 0 -21 99 -10 120 13 23 23
25 39 7z m-2590 -68 c-13 -24 -25 -24 -32 0 -6 26 12 44 30 30 9 -8 10 -16 2
-30z m-85 25 c23 -9 20 -51 -4 -59 -32 -10 -60 4 -60 29 0 12 3 26 7 29 8 9
36 9 57 1z m1746 -19 c-7 -8 -16 -15 -21 -15 -5 0 -6 7 -3 15 4 8 13 15 21 15
13 0 13 -3 3 -15z m-1086 -40 c9 -13 16 -35 15 -47 l0 -23 -9 23 c-5 12 -16
22 -24 22 -19 0 -29 17 -22 35 8 22 22 18 40 -10z m1191 -80 c0 -33 -21 -41
-38 -14 -14 22 -1 51 20 47 13 -2 18 -13 18 -33z m-491 16 c3 -5 -3 -20 -13
-32 -18 -22 -20 -22 -26 -6 -11 27 25 62 39 38z m406 -49 c0 -32 -16 -52 -42
-52 -14 0 -18 8 -18 33 0 40 6 47 37 47 19 0 23 -5 23 -28z m-1223 3 c5 -17
-14 -38 -30 -32 -20 8 -10 49 11 45 8 -2 17 -7 19 -13z m493 -5 c0 -11 -7 -20
-15 -20 -15 0 -21 21 -8 33 12 13 23 7 23 -13z m-566 -9 c3 -5 -1 -12 -10 -15
-25 -10 -34 -7 -34 9 0 16 35 21 44 6z m1179 -63 c-2 -5 -3 -15 -3 -23 0 -8
-9 -19 -21 -25 -17 -10 -24 -7 -45 15 -35 38 -26 53 28 46 23 -3 42 -9 41 -13z
m-723 -8 c8 -15 6 -23 -12 -40 -29 -27 -46 -25 -54 5 -12 47 44 77 66 35z
m-650 -15 c10 -12 9 -20 -5 -42 -17 -25 -18 -26 -31 -8 -33 44 2 91 36 50z
m-325 -41 c11 -6 34 -15 51 -19 18 -3 40 -15 50 -27 11 -11 39 -31 64 -44 42
-21 87 -60 167 -145 18 -19 70 -51 120 -74 l88 -40 190 1 c108 1 227 7 275 15
47 8 119 14 160 14 68 -1 83 -5 160 -44 47 -23 100 -55 119 -69 19 -15 39 -30
44 -33 5 -4 7 -19 3 -33 -6 -23 -11 -26 -50 -26 -60 0 -75 7 -90 45 -12 28
-20 33 -74 44 -33 6 -78 9 -101 5 -24 -4 -46 -2 -54 4 -18 15 -32 3 -72 -58
-40 -62 -42 -71 -17 -92 32 -29 88 -43 117 -30 38 18 55 15 76 -13 12 -15 42
-31 77 -41 31 -9 74 -21 96 -27 21 -6 53 -11 71 -11 40 0 157 48 205 84 62 47
204 122 240 127 45 6 116 -12 124 -33 8 -21 -19 -71 -47 -85 -12 -6 -35 -24
-52 -39 -16 -15 -46 -36 -65 -47 -54 -29 -123 -73 -145 -94 -12 -10 -45 -27
-75 -37 -30 -11 -95 -43 -145 -71 -87 -51 -92 -52 -150 -48 -55 5 -62 3 -93
-25 l-35 -30 -141 7 c-131 7 -143 9 -167 32 -22 20 -35 24 -73 22 -25 -2 -48
0 -52 4 -4 4 -18 7 -31 7 -13 0 -41 9 -63 20 -22 11 -45 20 -51 20 -7 0 -23
10 -36 22 -24 22 -25 22 -56 5 -30 -18 -31 -18 -46 1 -15 18 -98 52 -129 52
-12 0 -12 -3 -2 -15 10 -12 9 -16 -4 -21 -10 -4 -22 0 -29 8 -7 8 -32 22 -57
31 -53 20 -170 125 -170 153 0 11 -7 28 -15 38 -8 11 -15 26 -15 34 0 7 -22
39 -50 71 -27 32 -50 61 -50 64 0 18 30 4 63 -29 40 -40 69 -39 42 3 -29 44
-17 66 50 88 37 13 61 27 63 37 6 31 -39 78 -85 90 -24 6 -43 12 -43 15 0 2
11 19 25 37 14 18 25 44 25 59 l0 25 -73 -5 -74 -6 0 31 c0 20 -11 43 -32 67
-17 20 -29 40 -26 45 6 10 42 2 70 -16z m1335 -9 c0 -16 -6 -25 -15 -25 -9 0
-15 9 -15 25 0 16 6 25 15 25 9 0 15 -9 15 -25z m-270 -1 c19 -22 -9 -49 -44
-40 -28 7 -33 25 -14 44 17 17 43 15 58 -4z m-572 -37 c4 -20 -25 -34 -40 -19
-15 15 -1 44 19 40 10 -2 19 -11 21 -21z m2242 -20 c0 -25 -22 -49 -52 -60
-22 -8 -24 11 -3 19 8 4 15 16 15 28 0 26 8 36 27 36 7 0 13 -11 13 -23z
m-1490 -18 c0 -24 -23 -21 -28 4 -2 10 3 17 12 17 10 0 16 -9 16 -21z m321
-15 c25 -12 28 -18 18 -30 -14 -18 -30 -18 -54 0 -11 8 -16 19 -12 30 8 20 11
20 48 0z m-851 -9 c10 -12 10 -18 0 -30 -17 -21 -37 -19 -45 5 -12 37 20 55
45 25z m425 -119 c17 -12 11 -14 -56 -18 -88 -6 -137 6 -74 17 22 4 45 8 50
10 24 8 63 4 80 -9z m-205 -36 c-8 -5 -35 -9 -60 -9 -41 1 -42 2 -15 8 17 4
40 13 50 19 25 13 48 -4 25 -18z m3424 -241 c10 -49 7 -69 -8 -69 -9 0 -16 12
-18 28 -2 16 -12 31 -25 37 -40 17 -36 35 6 35 35 0 39 -3 45 -31z m216 -4 c0
-10 -10 -15 -31 -15 -27 0 -30 2 -19 15 7 8 21 15 31 15 11 0 19 -7 19 -15z
m110 -5 c0 -5 -7 -10 -15 -10 -8 0 -15 5 -15 10 0 6 7 10 15 10 8 0 15 -4 15
-10z m-1042 -14 c-13 -14 -28 -12 -28 5 0 5 9 9 20 9 17 0 19 -2 8 -14z
m-1509 -35 c12 -12 17 -28 14 -39 -5 -20 -97 -122 -124 -138 -9 -5 -41 -30
-70 -56 -30 -26 -70 -58 -91 -71 -20 -14 -69 -50 -110 -79 -74 -55 -135 -78
-203 -78 -19 0 -35 4 -35 9 0 14 128 117 240 193 30 21 73 55 95 77 22 22 43
40 47 41 14 0 134 89 167 124 40 42 44 43 70 17z m2678 -46 c9 -26 -4 -28 -26
-6 -21 21 -21 21 -1 21 11 0 23 -7 27 -15z m-7691 -967 c7 -11 -38 -58 -57
-58 -5 0 -9 11 -9 25 0 35 49 60 66 33z m4042 -201 c2 -10 -3 -17 -12 -17 -18
0 -29 16 -21 31 9 14 29 6 33 -14z m-4308 -87 c0 -5 -7 -10 -15 -10 -8 0 -15
5 -15 10 0 6 7 10 15 10 8 0 15 -4 15 -10z m206 -55 c16 -8 39 -15 51 -15 16
0 25 -8 29 -27 11 -41 -7 -57 -65 -63 -35 -4 -56 -11 -62 -23 -15 -26 -36 -20
-42 12 -3 16 -13 36 -22 44 -22 23 -19 43 11 66 32 25 61 27 100 6z m841 -210
c15 -8 41 -17 56 -20 21 -4 27 -10 23 -21 -3 -9 -6 -30 -6 -48 0 -18 -6 -41
-14 -51 -14 -19 -16 -19 -50 -3 -19 10 -58 20 -87 24 -39 5 -59 14 -75 33 -26
29 -30 61 -12 79 23 23 46 12 70 -30 13 -24 31 -44 41 -46 25 -5 32 25 12 48
-17 19 -15 50 4 50 5 0 22 -7 38 -15z m-720 -100 c1 -16 4 -41 5 -55 3 -22 -1
-25 -33 -28 -37 -3 -89 27 -89 52 0 19 71 66 95 63 15 -1 21 -10 22 -32z m480
-41 c43 -32 45 -64 3 -64 -32 0 -50 22 -50 64 0 32 5 32 47 0z"/>
<path d="M11377 5537 c-14 -9 -17 -20 -12 -40 4 -15 11 -27 15 -27 17 0 29 28
22 53 -6 25 -9 26 -25 14z"/>
<path d="M11787 4897 c-5 -17 -4 -34 2 -41 6 -7 8 -29 4 -49 -8 -50 9 -47 33
4 18 41 18 42 -3 58 -11 10 -23 26 -25 37 -3 15 -5 13 -11 -9z"/>
<path d="M11941 4811 c-10 -6 -10 -10 -1 -16 13 -8 24 -1 19 14 -3 6 -10 7
-18 2z"/>
<path d="M11688 4785 c-9 -19 -9 -28 0 -37 15 -15 18 -11 25 30 8 38 -8 43
-25 7z"/>
<path d="M11641 4702 c-2 -54 82 -118 105 -80 4 6 2 14 -4 16 -7 2 -12 15 -12
29 0 23 -3 25 -33 19 -29 -5 -34 -3 -44 21 l-11 28 -1 -33z"/>
<path d="M8330 7745 c-10 -13 -9 -15 9 -15 12 0 21 6 21 15 0 8 -4 15 -9 15
-5 0 -14 -7 -21 -15z"/>
<path d="M8185 7650 c-3 -5 1 -10 9 -10 8 0 18 5 21 10 3 6 -1 10 -9 10 -8 0
-18 -4 -21 -10z"/>
<path d="M8015 7580 c-3 -5 -15 -10 -25 -10 -10 0 -22 -4 -25 -10 -11 -18 29
-10 55 10 14 11 20 20 13 20 -6 0 -15 -4 -18 -10z"/>
<path d="M7845 7517 c-34 -19 -37 -22 -18 -25 24 -4 83 23 83 38 0 15 -21 11
-65 -13z"/>
<path d="M8876 7321 c-4 -6 -3 -19 3 -28 9 -17 10 -17 17 0 8 21 -10 45 -20
28z"/>
<path d="M8733 7226 c-27 -12 -30 -26 -7 -26 21 0 54 18 54 30 0 12 -18 11
-47 -4z"/>
<path d="M9008 7178 c9 -9 15 -9 24 0 9 9 7 12 -12 12 -19 0 -21 -3 -12 -12z"/>
<path d="M10173 7103 c-15 -5 -18 -33 -4 -33 23 0 62 21 56 30 -6 10 -31 12
-52 3z"/>
<path d="M9212 7089 c2 -6 8 -10 13 -10 5 0 11 4 13 10 2 6 -4 11 -13 11 -9 0
-15 -5 -13 -11z"/>
<path d="M8095 7073 c-19 -19 -19 -32 0 -40 15 -5 55 22 55 37 0 15 -41 18
-55 3z"/>
<path d="M9252 7079 c2 -6 8 -10 13 -10 5 0 11 4 13 10 2 6 -4 11 -13 11 -9 0
-15 -5 -13 -11z"/>
<path d="M10094 7074 c3 -8 6 -22 6 -30 0 -9 5 -12 10 -9 16 10 12 42 -6 49
-12 5 -15 2 -10 -10z"/>
<path d="M9770 7061 c0 -12 6 -21 16 -21 9 0 14 7 12 17 -5 25 -28 28 -28 4z"/>
<path d="M9906 7071 c-4 -5 -5 -34 -2 -63 5 -65 -7 -138 -25 -149 -12 -7 -11
-11 3 -25 15 -15 17 -15 34 5 10 11 24 21 31 21 7 0 13 10 13 23 0 50 40 61
81 21 24 -23 26 -30 17 -50 -6 -13 -18 -26 -27 -29 -9 -2 -21 -13 -27 -22 -19
-30 43 -21 77 11 31 29 35 41 19 51 -5 3 -10 19 -10 35 0 24 -5 29 -27 33 -28
4 -28 4 -5 12 17 6 22 13 18 28 -3 11 -1 28 4 38 15 28 2 46 -38 53 -85 14
-131 16 -136 7z m128 -37 c29 -29 13 -74 -26 -74 -23 0 -35 25 -30 61 5 33 30
39 56 13z"/>
<path d="M7980 7029 c0 -12 -8 -23 -20 -26 -22 -6 -26 -18 -9 -28 16 -10 49
25 49 52 0 12 -4 23 -10 23 -5 0 -10 -9 -10 -21z"/>
<path d="M10184 6965 c11 -8 24 -15 30 -15 5 0 1 7 -10 15 -10 8 -23 14 -29
14 -5 0 -1 -6 9 -14z"/>
<path d="M10650 6893 c0 -5 5 -15 10 -23 8 -12 10 -11 10 8 0 12 -4 22 -10 22
-5 0 -10 -3 -10 -7z"/>
<path d="M10656 6784 c-30 -45 -25 -67 15 -59 23 5 34 1 52 -19 17 -18 30 -23
46 -19 18 5 22 12 19 41 -2 22 -10 39 -23 46 -11 6 -32 19 -47 29 -14 9 -29
17 -32 17 -3 0 -16 -16 -30 -36z"/>
<path d="M9110 6700 c0 -34 3 -40 20 -40 11 0 23 -6 26 -14 3 -8 20 -18 37
-22 17 -3 39 -11 49 -17 27 -18 34 1 13 38 -15 29 -24 35 -52 35 -32 0 -73 28
-73 50 0 6 -4 10 -10 10 -5 0 -10 -18 -10 -40z"/>
<path d="M10033 6684 c-10 -22 -9 -25 5 -22 9 2 18 13 20 26 5 30 -10 28 -25
-4z"/>
<path d="M9770 6653 c0 -3 18 -21 40 -40 42 -37 47 -51 28 -83 -16 -26 0 -40
17 -15 8 11 24 30 37 43 22 22 22 22 2 22 -12 0 -34 17 -53 40 -18 22 -41 40
-51 40 -11 0 -20 -3 -20 -7z"/>
<path d="M8636 6584 c-8 -21 -8 -24 3 -24 5 0 11 9 14 20 6 24 -8 27 -17 4z"/>
<path d="M9653 6589 c-10 -10 -8 -18 9 -36 17 -18 20 -28 12 -40 -19 -30 -42
-39 -64 -25 -12 7 -35 10 -58 6 -48 -8 -67 11 -52 50 8 21 7 28 -5 32 -35 14
-47 0 -50 -56 -6 -97 -4 -135 6 -144 5 -6 9 3 9 25 0 51 25 81 63 77 27 -3 32
-7 35 -33 2 -25 -4 -38 -33 -64 -20 -18 -43 -30 -51 -27 -19 7 -44 -3 -44 -19
0 -13 29 -26 70 -31 14 -1 37 -6 53 -10 21 -5 27 -3 27 10 0 9 11 22 25 28 14
6 25 19 25 28 0 10 7 23 15 30 8 7 15 21 15 31 0 14 7 19 29 19 25 0 29 4 34
36 3 20 14 45 23 56 17 18 17 20 -2 38 -25 25 -75 35 -91 19z"/>
<path d="M10012 6559 c1 -13 8 -23 13 -21 15 3 12 35 -3 40 -9 3 -13 -3 -10
-19z"/>
<path d="M10163 6503 c16 -16 18 -16 34 0 16 16 15 17 -17 17 -32 0 -33 -1
-17 -17z"/>
<path d="M9255 6489 c-99 -21 -105 -21 -105 -10 0 14 -67 15 -75 1 -4 -6 6
-27 21 -47 22 -29 25 -39 16 -54 -8 -13 -8 -20 3 -29 11 -10 15 -7 21 14 4 17
14 26 32 28 19 2 28 10 30 26 5 32 38 47 69 31 18 -10 23 -19 20 -36 -6 -31
21 -46 54 -30 32 17 35 40 9 82 -22 36 -29 38 -95 24z"/>
<path d="M10010 6485 c-10 -12 -10 -15 3 -15 19 0 31 16 18 24 -5 3 -14 -1
-21 -9z"/>
<path d="M9970 6445 c0 -8 5 -25 12 -39 8 -19 14 -23 24 -15 9 8 10 18 2 40
-10 30 -38 41 -38 14z"/>
<path d="M9680 6403 c1 -18 18 -35 24 -24 4 6 4 16 1 21 -7 12 -25 13 -25 3z"/>
<path d="M9798 6357 c-38 -39 -46 -43 -70 -35 -17 6 -34 6 -44 0 -15 -8 -13
-12 15 -26 17 -9 37 -28 43 -41 6 -14 15 -25 20 -25 5 0 13 -11 18 -25 5 -14
16 -25 25 -25 8 0 24 -19 36 -42 43 -84 120 -129 159 -93 21 19 55 13 64 -10
3 -9 1 -27 -4 -41 -14 -35 -4 -46 31 -39 28 6 29 6 26 -32 -2 -31 1 -38 16
-37 13 1 17 -6 17 -32 0 -29 6 -38 34 -55 19 -11 44 -34 56 -52 19 -28 27 -32
56 -29 32 4 34 6 34 43 0 28 6 42 22 53 20 14 20 16 3 22 -12 5 -23 0 -35 -16
-15 -20 -23 -22 -56 -16 -54 10 -84 32 -84 61 0 23 23 55 40 55 10 0 50 67 50
85 0 23 40 44 71 38 27 -5 28 -4 19 25 -16 56 -33 68 -45 31 -10 -29 -59 -23
-63 9 -5 30 -18 28 -34 -5 -17 -37 -97 -56 -125 -30 -10 8 -30 18 -45 22 -15
4 -32 13 -39 21 -9 11 -15 11 -25 3 -7 -6 -22 -8 -34 -4 -28 9 -70 56 -70 78
0 22 57 82 88 91 24 8 25 10 16 44 -5 16 -14 22 -36 22 -17 0 -42 8 -56 18
-15 10 -32 22 -39 25 -6 4 -30 -12 -55 -36z"/>
<path d="M10057 6384 c-4 -4 -4 -18 -1 -31 4 -13 1 -30 -6 -38 -9 -11 -9 -15
-1 -15 6 0 14 7 17 15 4 8 17 15 30 15 20 0 24 5 24 30 0 26 -4 30 -28 30 -16
0 -32 -3 -35 -6z"/>
<path d="M8443 6353 c-21 -8 -84 -120 -77 -137 10 -27 30 -18 60 29 15 25 32
45 36 45 4 0 8 16 8 35 0 35 -3 38 -27 28z"/>
<path d="M8550 6345 c0 -3 7 -17 16 -31 13 -19 14 -30 6 -48 -8 -18 -16 -22
-46 -18 -31 4 -36 1 -36 -17 0 -14 6 -21 20 -21 25 0 40 -29 29 -57 -11 -29
-45 -30 -59 -2 -14 25 -45 21 -46 -6 0 -11 -3 -32 -7 -47 -7 -25 -12 -28 -48
-28 -40 0 -41 1 -36 29 4 17 1 36 -7 47 -12 16 -18 17 -40 6 -37 -17 -41 -16
-54 13 -14 29 -42 33 -42 6 0 -10 -7 -24 -15 -31 -19 -16 -20 -51 -1 -44 17 7
46 -33 46 -63 0 -30 11 -35 49 -20 30 11 34 10 51 -10 12 -15 24 -20 39 -16
29 7 37 -19 21 -70 -8 -23 -13 -48 -11 -55 1 -8 -3 -19 -9 -26 -7 -10 -6 -17
5 -26 21 -17 19 -24 -15 -63 -36 -42 -37 -45 -5 -57 18 -7 25 -17 25 -35 0
-28 25 -44 43 -26 8 8 8 14 -1 23 -13 13 -16 75 -6 102 8 21 22 20 77 -4 25
-11 52 -18 60 -14 21 8 32 113 13 132 -12 12 -15 10 -21 -17 -9 -41 -46 -67
-74 -51 -25 13 -28 58 -5 75 15 10 15 14 0 44 -16 30 -16 34 -1 58 17 25 38
27 90 8 14 -5 16 -4 6 3 -20 14 -4 32 29 32 53 0 83 53 53 94 -13 18 -24 23
-44 19 -18 -3 -28 0 -32 10 -9 24 3 56 24 62 10 4 19 14 19 24 0 10 9 28 20
41 22 25 23 30 12 46 -11 17 -92 42 -92 29z"/>
<path d="M10164 6335 c-4 -8 -10 -15 -15 -15 -18 0 -61 -50 -55 -65 9 -24 23
-18 47 23 13 20 29 41 36 45 7 4 13 12 13 17 0 16 -20 11 -26 -5z"/>
<path d="M8725 6229 c-10 -15 1 -23 20 -15 9 3 13 10 10 16 -8 13 -22 13 -30
-1z"/>
<path d="M10346 6221 c-7 -11 22 -23 35 -15 5 3 7 10 4 15 -8 12 -32 12 -39 0z"/>
<path d="M10429 6027 c-23 -19 -25 -26 -16 -44 10 -24 23 -28 51 -17 19 7 21
44 4 67 -12 15 -15 14 -39 -6z"/>
<path d="M8152 5908 c2 -13 8 -23 13 -23 6 0 11 10 13 23 2 15 -2 22 -13 22
-11 0 -15 -7 -13 -22z"/>
<path d="M8236 5901 c-12 -13 -14 -28 -10 -52 14 -72 55 -103 74 -54 5 14 14
25 20 25 14 0 -21 64 -46 83 -20 15 -23 15 -38 -2z"/>
<path d="M8155 5760 c-3 -5 -14 -10 -23 -10 -30 0 -47 -17 -34 -32 6 -8 9 -24
5 -36 -3 -15 -1 -22 8 -22 8 0 24 -3 37 -6 18 -5 22 -2 22 18 0 13 7 34 16 46
9 13 13 29 10 37 -6 17 -32 20 -41 5z"/>
<path d="M10600 5760 c0 -13 11 -13 30 0 12 8 11 10 -7 10 -13 0 -23 -4 -23
-10z"/>
<path d="M8232 5644 c-40 -24 -53 -46 -33 -59 5 -3 12 -1 16 5 3 5 14 10 25
10 11 0 22 12 29 32 6 17 10 33 8 34 -1 2 -22 -8 -45 -22z"/>
<path d="M8477 5653 c-12 -11 -8 -23 8 -23 8 0 15 7 15 15 0 16 -12 20 -23 8z"/>
<path d="M10310 5620 c-14 -11 -40 -20 -57 -20 -18 0 -33 -4 -33 -10 0 -16 57
-11 75 6 12 13 27 15 62 10 46 -6 46 -6 28 14 -23 25 -43 25 -75 0z"/>
<path d="M10410 5546 c0 -33 16 -42 29 -17 16 29 13 41 -9 41 -15 0 -20 -7
-20 -24z"/>
<path d="M7896 5537 c-13 -9 -16 -20 -12 -35 10 -32 47 -37 90 -13 47 27 46
27 91 -9 37 -29 85 -40 85 -19 0 22 -21 49 -38 49 -10 0 -22 4 -27 9 -6 5 -37
11 -70 14 -33 2 -69 7 -80 11 -12 4 -28 1 -39 -7z"/>
<path d="M10224 5455 c-3 -8 -3 -19 1 -25 9 -14 35 6 35 26 0 19 -29 18 -36
-1z"/>
<path d="M10067 5333 c-4 -3 -7 -13 -7 -21 0 -9 -7 -23 -16 -33 -17 -19 -22
-129 -9 -189 4 -18 0 -34 -13 -50 -18 -22 -23 -23 -46 -12 -17 7 -26 19 -24
29 2 12 -3 18 -17 18 -13 0 -19 -6 -17 -17 1 -9 -2 -19 -8 -23 -16 -10 -12
-23 10 -30 13 -4 20 -15 20 -32 0 -49 22 -93 46 -93 12 0 25 -7 28 -16 4 -10
14 -14 26 -11 11 3 22 2 24 -2 7 -11 86 -5 98 7 8 8 7 20 -1 41 -13 29 -13 29
-42 13 -23 -14 -32 -15 -47 -5 -14 8 -23 8 -30 1 -6 -6 -18 -8 -28 -4 -13 5
-15 15 -11 48 6 43 19 58 53 58 12 0 32 16 50 40 42 57 99 68 92 17 -5 -38 15
-34 38 7 23 41 88 84 99 66 11 -19 25 -10 25 16 0 35 -54 58 -100 43 -41 -15
-74 11 -67 54 4 32 -8 44 -28 27 -22 -18 -60 -8 -63 17 -4 24 -25 46 -35 36z"/>
<path d="M8316 4994 c-16 -42 4 -124 30 -124 18 0 25 27 9 40 -11 9 -12 17 -5
30 7 13 7 21 0 25 -5 3 -10 15 -10 26 0 23 -15 25 -24 3z"/>
<path d="M10215 4980 c-7 -23 1 -40 20 -40 8 0 17 5 20 10 9 15 -4 50 -20 50
-8 0 -16 -9 -20 -20z"/>
<path d="M9785 4770 c-3 -5 -4 -10 -1 -10 2 0 11 -3 20 -6 11 -4 16 -1 16 10
0 18 -25 22 -35 6z"/>
<path d="M10162 4661 c-8 -5 -11 -17 -7 -34 8 -31 0 -48 -20 -41 -10 4 -12 15
-8 35 3 18 1 29 -6 29 -6 0 -11 -11 -11 -25 0 -21 -5 -25 -30 -25 -41 0 -49
-24 -23 -69 26 -45 57 -48 61 -8 2 16 11 31 20 35 29 10 38 26 45 70 7 42 3
49 -21 33z"/>
<path d="M9970 4600 c-11 -20 -9 -21 17 -18 17 2 28 9 28 18 0 23 -32 23 -45
0z"/>
<path d="M9356 4371 c-34 -15 -36 -18 -22 -30 9 -7 16 -22 16 -32 0 -23 4 -23
51 -1 33 14 39 22 39 50 0 27 -4 32 -22 31 -13 0 -40 -8 -62 -18z"/>
<path d="M10071 4181 c-12 -8 -12 -12 -2 -25 19 -23 31 -20 31 9 0 27 -6 30
-29 16z"/>
</g>
</svg>
